<svg width="20" height="20" viewBox="0 0 20 20" fill="none" xmlns="http://www.w3.org/2000/svg">
<path d="M8.76074 13.8664L14.7114 7.91576L13.6534 6.87363L8.76074 11.7663L6.30558 9.31113L5.26843 10.3533L8.76074 13.8664ZM10.0006 18.4579C8.84128 18.4579 7.74724 18.2365 6.71845 17.7937C5.68966 17.351 4.7911 16.7454 4.02276 15.9771C3.25443 15.2088 2.64888 14.3104 2.20612 13.2821C1.76337 12.2538 1.54199 11.16 1.54199 10.0007C1.54199 8.82751 1.76337 7.72653 2.20612 6.69773C2.64888 5.66894 3.25417 4.77376 4.02197 4.01219C4.78979 3.25064 5.68799 2.64773 6.71658 2.20348C7.74515 1.75923 8.83921 1.53711 9.99876 1.53711C11.1722 1.53711 12.2735 1.75911 13.3027 2.20311C14.3319 2.6471 15.2271 3.24965 15.9885 4.01078C16.7498 4.7719 17.3525 5.66692 17.7966 6.69584C18.2407 7.72477 18.4627 8.82615 18.4627 9.99998C18.4627 11.1597 18.2406 12.254 17.7964 13.2827C17.3521 14.3114 16.7492 15.2098 15.9877 15.9777C15.2261 16.7456 14.3311 17.351 13.3028 17.7937C12.2745 18.2365 11.1737 18.4579 10.0006 18.4579Z" fill="#0553F0"/>
</svg>
