<svg width="36" height="36" viewBox="0 0 36 36" fill="none" xmlns="http://www.w3.org/2000/svg">
<circle cx="18" cy="18" r="18" fill="#F0D91D"/>
<path d="M8.04705 20.668C8.08065 20.7949 8.13904 20.9138 8.21885 21.018C8.29866 21.1222 8.39831 21.2095 8.51205 21.275L10.4221 22.379V24.578C10.4221 24.8432 10.5274 25.0976 10.7149 25.2851C10.9025 25.4726 11.1568 25.578 11.4221 25.578H13.6211L14.7251 27.488C14.8136 27.6393 14.94 27.765 15.0918 27.8527C15.2437 27.9404 15.4157 27.987 15.5911 27.988C15.7651 27.988 15.9381 27.942 16.0921 27.853L18.0001 26.75L19.9101 27.854C20.1397 27.9864 20.4124 28.0224 20.6685 27.9539C20.9246 27.8855 21.1431 27.7183 21.2761 27.489L22.3791 25.579H24.5781C24.8433 25.579 25.0976 25.4736 25.2852 25.2861C25.4727 25.0986 25.5781 24.8442 25.5781 24.579V22.38L27.4881 21.276C27.6018 21.2103 27.7015 21.1227 27.7815 21.0184C27.8614 20.9141 27.92 20.7951 27.9539 20.6681C27.9878 20.5412 27.9963 20.4088 27.979 20.2785C27.9617 20.1483 27.9189 20.0227 27.8531 19.909L26.7501 18L27.8541 16.092C27.9867 15.8624 28.0228 15.5896 27.9544 15.3334C27.8859 15.0773 27.7186 14.8588 27.4891 14.726L25.5791 13.622V11.422C25.5791 11.1568 25.4737 10.9024 25.2862 10.7149C25.0986 10.5274 24.8443 10.422 24.5791 10.422H22.3801L21.2771 8.513C21.1438 8.28392 20.9258 8.11651 20.6701 8.047C20.5432 8.01262 20.4108 8.00375 20.2805 8.02092C20.1502 8.03808 20.0247 8.08094 19.9111 8.147L18.0001 9.25L16.0911 8.146C15.8615 8.01332 15.5886 7.97723 15.3325 8.04568C15.0763 8.11412 14.8578 8.2815 14.7251 8.511L13.6211 10.421H11.4221C11.1568 10.421 10.9025 10.5264 10.7149 10.7139C10.5274 10.9014 10.4221 11.1558 10.4221 11.421V13.62L8.51205 14.724C8.28262 14.8574 8.11538 15.0762 8.04697 15.3326C7.97855 15.589 8.01454 15.8621 8.14705 16.092L9.25105 18L8.14705 19.908C8.01504 20.1383 7.97911 20.4114 8.04705 20.668ZM18.0001 19C14.5201 19 14.0001 17.121 14.0001 16C14.0001 14.713 15.0291 13.417 17.0001 13.085V12.012H19.0001V13.121C20.7341 13.531 21.4001 14.974 21.4001 16H20.4001L19.4001 16.018C19.3861 15.638 19.1851 15 18.0001 15C16.7011 15 16.0001 15.515 16.0001 16C16.0001 16.374 16.0001 17 18.0001 17C21.4801 17 22.0001 18.879 22.0001 20C22.0001 21.287 20.9711 22.583 19.0001 22.915V24H17.0001V22.92C14.6611 22.553 14.0001 20.917 14.0001 20H16.0001C16.0111 20.143 16.1591 21 18.0001 21C19.3801 21 20.0001 20.415 20.0001 20C20.0001 19.675 20.0001 19 18.0001 19Z" fill="#FEFEFE"/>
</svg>
