<svg width="24" height="24" viewBox="0 0 24 24" fill="none" xmlns="http://www.w3.org/2000/svg">
<circle cx="12" cy="12" r="12" fill="#0553F0"/>
<path d="M17.9997 6.66669H5.99967C5.82286 6.66669 5.65329 6.73693 5.52827 6.86195C5.40325 6.98697 5.33301 7.15654 5.33301 7.33335V16.6667C5.33301 16.8435 5.40325 17.0131 5.52827 17.1381C5.65329 17.2631 5.82286 17.3334 5.99967 17.3334H17.9997C18.1765 17.3334 18.3461 17.2631 18.4711 17.1381C18.5961 17.0131 18.6663 16.8435 18.6663 16.6667V7.33335C18.6663 7.15654 18.5961 6.98697 18.4711 6.86195C18.3461 6.73693 18.1765 6.66669 17.9997 6.66669ZM17.333 14C16.8026 14 16.2939 14.2107 15.9188 14.5858C15.5437 14.9609 15.333 15.4696 15.333 16H8.66634C8.66634 15.4696 8.45563 14.9609 8.08055 14.5858C7.70548 14.2107 7.19677 14 6.66634 14V10C7.19677 10 7.70548 9.78931 8.08055 9.41423C8.45563 9.03916 8.66634 8.53045 8.66634 8.00002H15.333C15.333 8.53045 15.5437 9.03916 15.9188 9.41423C16.2939 9.78931 16.8026 10 17.333 10V14Z" fill="white"/>
<path d="M11.9997 9.33331C10.529 9.33331 9.33301 10.5293 9.33301 12C9.33301 13.4706 10.529 14.6666 11.9997 14.6666C13.4703 14.6666 14.6663 13.4706 14.6663 12C14.6663 10.5293 13.4703 9.33331 11.9997 9.33331ZM11.9997 13.3333C11.2643 13.3333 10.6663 12.7353 10.6663 12C10.6663 11.2646 11.2643 10.6666 11.9997 10.6666C12.735 10.6666 13.333 11.2646 13.333 12C13.333 12.7353 12.735 13.3333 11.9997 13.3333Z" fill="white"/>
</svg>
