<svg width="36" height="36" viewBox="0 0 36 36" fill="none" xmlns="http://www.w3.org/2000/svg">
<circle cx="18" cy="18" r="18" fill="#12A538"/>
<path d="M14 19V23H12V25H15V27H17V25H19V27H21V24.949C22.968 24.7 24.5 23.034 24.5 21C24.5 19.68 23.85 18.516 22.86 17.787C23.5901 17.043 23.9994 16.0424 24 15C24 13.142 22.721 11.589 21 11.142V9H19V11H17V9H15V11H12V13H14V19ZM20.5 23H16V19H20.5C21.603 19 22.5 19.897 22.5 21C22.5 22.103 21.603 23 20.5 23ZM16 13H20C21.103 13 22 13.897 22 15C22 16.103 21.103 17 20 17H16V13Z" fill="#FEFEFE"/>
</svg>
