<svg width="18" height="12" viewBox="0 0 18 12" fill="none" xmlns="http://www.w3.org/2000/svg">
<g clip-path="url(#clip0_509_1711)">
<path d="M9.01836 12.0376C7.38086 12.0376 5.97148 11.447 4.79023 10.2657C3.60898 9.08447 3.01836 7.6751 3.01836 6.0376V5.19385L1.51836 6.69385L0.787109 5.9626L3.58086 3.16885L6.37461 5.9626L5.64336 6.69385L4.14336 5.19385V6.0376C4.14336 7.3751 4.62148 8.52197 5.57773 9.47822C6.53398 10.4345 7.68086 10.9126 9.01836 10.9126C9.38086 10.9126 9.72461 10.8813 10.0496 10.8188C10.3746 10.7563 10.6809 10.6626 10.9684 10.5376L11.7746 11.3438C11.3246 11.5938 10.8715 11.772 10.4152 11.8782C9.95898 11.9845 9.49336 12.0376 9.01836 12.0376ZM14.4371 8.86885L11.6434 6.0751L12.3934 5.3251L13.8746 6.80635V6.0376C13.8746 4.7001 13.3965 3.55322 12.4402 2.59697C11.484 1.64072 10.3371 1.1626 8.99961 1.1626C8.63711 1.1626 8.29336 1.19697 7.96836 1.26572C7.64336 1.33447 7.33711 1.41885 7.04961 1.51885L6.24336 0.712598C6.69336 0.462598 7.14648 0.287598 7.60273 0.187598C8.05898 0.0875977 8.52461 0.0375977 8.99961 0.0375977C10.6371 0.0375977 12.0465 0.628223 13.2277 1.80947C14.409 2.99072 14.9996 4.4001 14.9996 6.0376V6.84385L16.4996 5.34385L17.2309 6.0751L14.4371 8.86885Z" fill="#565E6E"/>
</g>
<defs>
<clipPath id="clip0_509_1711">
<rect width="18" height="12" fill="white"/>
</clipPath>
</defs>
</svg>
