<svg width="48" height="48" viewBox="0 0 48 48" fill="none" xmlns="http://www.w3.org/2000/svg">
<g clip-path="url(#clip0_509_1404)">
<path d="M47 48H1C0.734784 48 0.48043 47.8946 0.292893 47.7071C0.105357 47.5196 0 47.2652 0 47C0 46.7348 0.105357 46.4804 0.292893 46.2929C0.48043 46.1054 0.734784 46 1 46H47C47.2652 46 47.5196 46.1054 47.7071 46.2929C47.8946 46.4804 48 46.7348 48 47C48 47.2652 47.8946 47.5196 47.7071 47.7071C47.5196 47.8946 47.2652 48 47 48Z" fill="#010E28"/>
<path d="M13 48H3C2.73478 48 2.48043 47.8947 2.29289 47.7071C2.10536 47.5196 2 47.2652 2 47V36C2 34.898 2.898 34 4 34H12C13.102 34 14 34.898 14 36V47C14 47.2652 13.8946 47.5196 13.7071 47.7071C13.5196 47.8947 13.2652 48 13 48ZM4 46H12V36H4V46ZM29 48H19C18.7348 48 18.4804 47.8947 18.2929 47.7071C18.1054 47.5196 18 47.2652 18 47V24C18 22.898 18.898 22 20 22H28C29.102 22 30 22.898 30 24V47C30 47.2652 29.8946 47.5196 29.7071 47.7071C29.5196 47.8947 29.2652 48 29 48ZM20 46H28V24H20V46ZM45 48H35C34.7348 48 34.4804 47.8947 34.2929 47.7071C34.1054 47.5196 34 47.2652 34 47V12C34 10.898 34.898 10 36 10H44C45.102 10 46 10.898 46 12V47C46 47.2652 45.8946 47.5196 45.7071 47.7071C45.5196 47.8947 45.2652 48 45 48ZM36 46H44V12H36V46ZM5 22C4.80237 22 4.60918 21.9414 4.44483 21.8316C4.28049 21.7218 4.15234 21.5658 4.07659 21.3833C4.00084 21.2008 3.98087 20.9999 4.01921 20.806C4.05755 20.6121 4.15247 20.434 4.292 20.294L22.292 2.294C22.4806 2.11184 22.7332 2.01105 22.9954 2.01333C23.2576 2.01561 23.5084 2.12078 23.6938 2.30618C23.8792 2.49159 23.9844 2.7424 23.9867 3.0046C23.989 3.2668 23.8882 3.5194 23.706 3.708L5.706 21.708C5.61333 21.8007 5.50326 21.8743 5.38211 21.9244C5.26096 21.9745 5.13111 22.0002 5 22Z" fill="#010E28"/>
<path d="M23 12C22.7348 12 22.4804 11.8946 22.2929 11.7071C22.1054 11.5196 22 11.2652 22 11V4H15C14.7348 4 14.4804 3.89464 14.2929 3.70711C14.1054 3.51957 14 3.26522 14 3C14 2.73478 14.1054 2.48043 14.2929 2.29289C14.4804 2.10536 14.7348 2 15 2H23C23.2652 2 23.5196 2.10536 23.7071 2.29289C23.8946 2.48043 24 2.73478 24 3V11C24 11.2652 23.8946 11.5196 23.7071 11.7071C23.5196 11.8946 23.2652 12 23 12Z" fill="#010E28"/>
</g>
<defs>
<clipPath id="clip0_509_1404">
<rect width="48" height="48" fill="white"/>
</clipPath>
</defs>
</svg>
