<svg width="48" height="48" viewBox="0 0 48 48" fill="none" xmlns="http://www.w3.org/2000/svg">
<g clip-path="url(#clip0_509_2414)">
<path d="M45 39.9999H3C1.346 39.9999 0 38.6539 0 36.9999V10.9999C0 10.4159 0.19 9.81391 0.534 9.29791C0.636378 9.09831 0.80302 8.93901 1.00704 8.84574C1.21106 8.75246 1.44055 8.73064 1.65849 8.78379C1.87643 8.83695 2.07011 8.96198 2.20827 9.13872C2.34643 9.31546 2.42102 9.53359 2.42 9.75791C2.41365 10.0209 2.31446 10.2731 2.14 10.4699C2.05151 10.6328 2.0035 10.8146 2 10.9999V36.9999C2 37.5499 2.45 37.9999 3 37.9999H45C45.55 37.9999 46 37.5499 46 36.9999V10.9999C45.9932 10.7754 45.9178 10.5583 45.784 10.3779C45.6576 10.1952 45.5868 9.97993 45.58 9.75791C45.58 9.52741 45.6596 9.30398 45.8054 9.12542C45.9511 8.94687 46.1541 8.82415 46.38 8.77804C46.6058 8.73194 46.8406 8.76526 47.0447 8.87239C47.2488 8.97951 47.4097 9.15385 47.5 9.36591C47.842 9.91591 48 10.4639 48 10.9999V36.9999C48 38.6539 46.654 39.9999 45 39.9999ZM33 47.9999H15C14.7348 47.9999 14.4804 47.8946 14.2929 47.707C14.1054 47.5195 14 47.2651 14 46.9999C14 46.7347 14.1054 46.4803 14.2929 46.2928C14.4804 46.1053 14.7348 45.9999 15 45.9999H33C33.2652 45.9999 33.5196 46.1053 33.7071 46.2928C33.8946 46.4803 34 46.7347 34 46.9999C34 47.2651 33.8946 47.5195 33.7071 47.707C33.5196 47.8946 33.2652 47.9999 33 47.9999Z" fill="#010E28"/>
<path d="M21 48C20.7348 48 20.4804 47.8946 20.2929 47.7071C20.1054 47.5196 20 47.2652 20 47V39C20 38.7348 20.1054 38.4804 20.2929 38.2929C20.4804 38.1054 20.7348 38 21 38C21.2652 38 21.5196 38.1054 21.7071 38.2929C21.8946 38.4804 22 38.7348 22 39V47C22 47.2652 21.8946 47.5196 21.7071 47.7071C21.5196 47.8946 21.2652 48 21 48ZM27 48C26.7348 48 26.4804 47.8946 26.2929 47.7071C26.1054 47.5196 26 47.2652 26 47V39C26 38.7348 26.1054 38.4804 26.2929 38.2929C26.4804 38.1054 26.7348 38 27 38C27.2652 38 27.5196 38.1054 27.7071 38.2929C27.8946 38.4804 28 38.7348 28 39V47C28 47.2652 27.8946 47.5196 27.7071 47.7071C27.5196 47.8946 27.2652 48 27 48ZM24 19C20.14 19 17 15.86 17 12C17 8.14 20.14 5 24 5C27.86 5 31 8.14 31 12C31 15.86 27.86 19 24 19ZM24 7C21.242 7 19 9.242 19 12C19 14.758 21.242 17 24 17C26.758 17 29 14.758 29 12C29 9.242 26.758 7 24 7Z" fill="#010E28"/>
<path d="M23.9999 24C16.8639 24 10.1819 19.698 6.12789 12.49C6.04342 12.3405 5.99902 12.1717 5.99902 12C5.99902 11.8283 6.04342 11.6595 6.12789 11.51C10.1819 4.302 16.8639 0 23.9999 0C31.1359 0 37.8179 4.302 41.8719 11.51C41.9564 11.6595 42.0008 11.8283 42.0008 12C42.0008 12.1717 41.9564 12.3405 41.8719 12.49C37.8179 19.698 31.1359 24 23.9999 24ZM8.15389 12C11.8699 18.274 17.7559 22 23.9999 22C30.2439 22 36.1299 18.274 39.8459 12C36.1299 5.726 30.2439 2 23.9999 2C17.7559 2 11.8699 5.726 8.15389 12Z" fill="#010E28"/>
</g>
<defs>
<clipPath id="clip0_509_2414">
<rect width="48" height="48" fill="white"/>
</clipPath>
</defs>
</svg>
