<svg width="48" height="48" viewBox="0 0 48 48" fill="none" xmlns="http://www.w3.org/2000/svg">
<g clip-path="url(#clip0_509_1387)">
<path d="M15 30C6.728 30 0 23.272 0 15C0 6.728 6.728 0 15 0C23.272 0 30 6.728 30 15C30 15.202 29.998 15.378 29.972 15.582C29.9577 15.7131 29.9173 15.8399 29.8532 15.9551C29.7891 16.0704 29.7026 16.1716 29.5988 16.2528C29.495 16.3341 29.376 16.3938 29.2487 16.4283C29.1215 16.4629 28.9887 16.4716 28.858 16.454C28.7276 16.4382 28.6016 16.3968 28.4871 16.3322C28.3727 16.2676 28.2722 16.1811 28.1912 16.0777C28.1102 15.9742 28.0504 15.8558 28.0152 15.7293C27.98 15.6027 27.9701 15.4704 27.986 15.34C28.002 15.22 28 15.118 28 15C28 7.832 22.168 2 15 2C7.832 2 2 7.832 2 15C1.998 22.196 7.882 28.02 15.082 28C15.168 28 15.25 27.998 15.34 27.988C15.4704 27.9721 15.6027 27.9821 15.7292 28.0173C15.8558 28.0525 15.9742 28.1123 16.0776 28.1933C16.181 28.2743 16.2675 28.3748 16.3321 28.4892C16.3967 28.6036 16.4381 28.7296 16.454 28.86C16.4699 28.9904 16.4599 29.1227 16.4247 29.2492C16.3895 29.3758 16.3297 29.4942 16.2487 29.5976C16.1677 29.701 16.0672 29.7875 15.9528 29.8521C15.8384 29.9167 15.7124 29.9581 15.582 29.974C15.3887 29.9946 15.1944 30.0033 15 30Z" fill="#010E28"/>
<path d="M16 22H11C10.7348 22 10.4804 21.8946 10.2929 21.7071C10.1054 21.5196 10 21.2652 10 21C10 20.7348 10.1054 20.4804 10.2929 20.2929C10.4804 20.1054 10.7348 20 11 20H16C16.515 19.977 17.0012 19.7562 17.3574 19.3836C17.7137 19.0111 17.9125 18.5155 17.9125 18C17.9125 17.4845 17.7137 16.9889 17.3574 16.6164C17.0012 16.2438 16.515 16.023 16 16H14C11.794 16 10 14.206 10 12C10 9.794 11.794 8 14 8H19C19.2652 8 19.5196 8.10536 19.7071 8.29289C19.8946 8.48043 20 8.73478 20 9C20 9.26522 19.8946 9.51957 19.7071 9.70711C19.5196 9.89464 19.2652 10 19 10H14C13.485 10.023 12.9988 10.2438 12.6426 10.6164C12.2863 10.9889 12.0875 11.4845 12.0875 12C12.0875 12.5155 12.2863 13.0111 12.6426 13.3836C12.9988 13.7562 13.485 13.977 14 14H16C18.206 14 20 15.794 20 18C20 20.206 18.206 22 16 22Z" fill="#010E28"/>
<path d="M15 25C14.7348 25 14.4804 24.8946 14.2929 24.7071C14.1054 24.5196 14 24.2652 14 24V21C14 20.7348 14.1054 20.4804 14.2929 20.2929C14.4804 20.1054 14.7348 20 15 20C15.2652 20 15.5196 20.1054 15.7071 20.2929C15.8946 20.4804 16 20.7348 16 21V24C16 24.2652 15.8946 24.5196 15.7071 24.7071C15.5196 24.8946 15.2652 25 15 25ZM15 10C14.7348 10 14.4804 9.89464 14.2929 9.70711C14.1054 9.51957 14 9.26522 14 9V6C14 5.73478 14.1054 5.48043 14.2929 5.29289C14.4804 5.10536 14.7348 5 15 5C15.2652 5 15.5196 5.10536 15.7071 5.29289C15.8946 5.48043 16 5.73478 16 6V9C16 9.26522 15.8946 9.51957 15.7071 9.70711C15.5196 9.89464 15.2652 10 15 10ZM33 48C24.728 48 18 41.272 18 33C18 24.728 24.728 18 33 18C41.272 18 48 24.728 48 33C48 41.272 41.272 48 33 48ZM33 20C25.832 20 20 25.832 20 33C20 40.168 25.832 46 33 46C40.168 46 46 40.168 46 33C46 25.832 40.168 20 33 20Z" fill="#010E28"/>
<path d="M31 42C30.7348 42 30.4804 41.8946 30.2929 41.7071C30.1054 41.5196 30 41.2652 30 41V29C30 26.242 32.242 24 35 24C37.758 24 40 26.242 40 29C40 29.2652 39.8946 29.5196 39.7071 29.7071C39.5196 29.8946 39.2652 30 39 30C38.7348 30 38.4804 29.8946 38.2929 29.7071C38.1054 29.5196 38 29.2652 38 29C38 27.346 36.654 26 35 26C33.346 26 32 27.346 32 29V41C32 41.2652 31.8946 41.5196 31.7071 41.7071C31.5196 41.8946 31.2652 42 31 42Z" fill="#010E28"/>
<path d="M37 42H27C26.7348 42 26.4804 41.8946 26.2929 41.7071C26.1054 41.5196 26 41.2652 26 41C26 40.7348 26.1054 40.4804 26.2929 40.2929C26.4804 40.1054 26.7348 40 27 40H37C37.2652 40 37.5196 40.1054 37.7071 40.2929C37.8946 40.4804 38 40.7348 38 41C38 41.2652 37.8946 41.5196 37.7071 41.7071C37.5196 41.8946 37.2652 42 37 42ZM35 34H27C26.7348 34 26.4804 33.8946 26.2929 33.7071C26.1054 33.5196 26 33.2652 26 33C26 32.7348 26.1054 32.4804 26.2929 32.2929C26.4804 32.1054 26.7348 32 27 32H35C35.2652 32 35.5196 32.1054 35.7071 32.2929C35.8946 32.4804 36 32.7348 36 33C36 33.2652 35.8946 33.5196 35.7071 33.7071C35.5196 33.8946 35.2652 34 35 34ZM47 14H39C38.7348 14 38.4804 13.8946 38.2929 13.7071C38.1054 13.5196 38 13.2652 38 13C38 12.7348 38.1054 12.4804 38.2929 12.2929C38.4804 12.1054 38.7348 12 39 12H46V5C46 4.73478 46.1054 4.48043 46.2929 4.29289C46.4804 4.10536 46.7348 4 47 4C47.2652 4 47.5196 4.10536 47.7071 4.29289C47.8946 4.48043 48 4.73478 48 5V13C48 13.2652 47.8946 13.5196 47.7071 13.7071C47.5196 13.8946 47.2652 14 47 14Z" fill="#010E28"/>
<path d="M47 14C46.8029 13.9999 46.6103 13.9416 46.4462 13.8323C46.2822 13.7231 46.1541 13.5678 46.078 13.386C46.03 13.272 41.19 2 31 2C30.7348 2 30.4804 1.89464 30.2929 1.70711C30.1054 1.51957 30 1.26522 30 1C30 0.734784 30.1054 0.48043 30.2929 0.292893C30.4804 0.105357 30.7348 0 31 0C42.534 0 47.708 12.1 47.924 12.616C47.9872 12.768 48.0119 12.9333 47.9959 13.0971C47.98 13.261 47.9238 13.4183 47.8324 13.5553C47.7409 13.6922 47.6171 13.8044 47.4719 13.882C47.3267 13.9596 47.1646 14.0001 47 14ZM1 44C0.734784 44 0.48043 43.8946 0.292893 43.7071C0.105357 43.5196 0 43.2652 0 43V35C0 34.7348 0.105357 34.4804 0.292893 34.2929C0.48043 34.1054 0.734784 34 1 34H9C9.26522 34 9.51957 34.1054 9.70711 34.2929C9.89464 34.4804 10 34.7348 10 35C10 35.2652 9.89464 35.5196 9.70711 35.7071C9.51957 35.8946 9.26522 36 9 36H2V43C2 43.2652 1.89464 43.5196 1.70711 43.7071C1.51957 43.8946 1.26522 44 1 44Z" fill="#010E28"/>
<path d="M17.0003 48.0001C5.46626 48.0001 0.292263 35.9001 0.0762633 35.3841C-0.0179565 35.1407 -0.0133445 34.8702 0.089115 34.6303C0.191574 34.3903 0.383766 34.1999 0.624671 34.0997C0.865576 33.9994 1.13611 33.9973 1.37854 34.0938C1.62097 34.1903 1.8161 34.3777 1.92226 34.6161C1.97026 34.7281 6.81026 46.0001 17.0003 46.0001C17.2655 46.0001 17.5198 46.1054 17.7074 46.2929C17.8949 46.4805 18.0003 46.7348 18.0003 47.0001C18.0003 47.2653 17.8949 47.5196 17.7074 47.7072C17.5198 47.8947 17.2655 48.0001 17.0003 48.0001Z" fill="#010E28"/>
</g>
<defs>
<clipPath id="clip0_509_1387">
<rect width="48" height="48" fill="white"/>
</clipPath>
</defs>
</svg>
