<svg width="48" height="48" viewBox="0 0 48 48" fill="none" xmlns="http://www.w3.org/2000/svg">
<path fill-rule="evenodd" clip-rule="evenodd" d="M10.0002 19.0001C10.0001 16.3496 10.6585 13.7407 11.9161 11.4076C13.1738 9.07456 14.9913 7.09048 17.2055 5.63362C19.4196 4.17675 21.961 3.29275 24.6013 3.06103C27.2416 2.8293 29.8981 3.25711 32.3322 4.30603C34.7662 5.35494 36.9016 6.9921 38.5464 9.07042C40.1912 11.1487 41.294 13.6031 41.7556 16.2131C42.2172 18.823 42.0233 21.5067 41.1911 24.0231C40.359 26.5396 38.9147 28.8099 36.9882 30.6301C36.9795 30.637 36.9727 30.6459 36.9682 30.6561V30.6621L37.8962 39.0081C37.9502 39.494 37.8244 39.9829 37.5425 40.3823C37.2606 40.7818 36.8421 41.0642 36.3662 41.1761L21.3502 44.7101C21.0714 44.7757 20.7819 44.7806 20.5011 44.7247C20.2203 44.6687 19.9548 44.5531 19.7225 44.3857C19.4902 44.2183 19.2966 44.0029 19.1547 43.7542C19.0129 43.5055 18.926 43.2292 18.9002 42.9441L18.5402 39.0001H14.0002C13.2045 39.0001 12.4414 38.684 11.8788 38.1214C11.3162 37.5588 11.0002 36.7957 11.0002 36.0001V31.0301L7.91216 30.2581C7.62916 30.1872 7.36509 30.0553 7.13847 29.8716C6.91185 29.6879 6.72817 29.4568 6.6003 29.1946C6.47243 28.9324 6.40347 28.6453 6.39827 28.3537C6.39306 28.062 6.45173 27.7727 6.57016 27.5061L10.0182 19.7481C10.0058 19.4989 10.0011 19.2495 10.0002 19.0001ZM26.0002 5.00006C24.0845 5.00006 22.1892 5.39321 20.4316 6.15517C18.674 6.91714 17.0915 8.0317 15.7819 9.4299C14.4724 10.8281 13.4638 12.4802 12.8185 14.2839C12.1731 16.0876 11.9048 18.0045 12.0302 19.9161C12.0458 20.154 11.9771 20.3898 11.8362 20.5821L8.39616 28.3181L11.4842 29.0901C11.917 29.198 12.3014 29.4476 12.5761 29.7991C12.8508 30.1507 13 30.5839 13.0002 31.0301V36.0001C13.0002 36.2653 13.1055 36.5196 13.293 36.7072C13.4806 36.8947 13.7349 37.0001 14.0002 37.0001H18.5402C19.0398 36.9995 19.5215 37.186 19.8906 37.5229C20.2596 37.8597 20.4892 38.3224 20.5342 38.8201L20.8922 42.7621L35.9082 39.2301L34.9802 30.8821C34.9466 30.568 34.9863 30.2505 35.0964 29.9544C35.2064 29.6584 35.3836 29.3919 35.6142 29.1761C37.6513 27.2512 39.0638 24.7593 39.6689 22.0228C40.274 19.2862 40.0439 16.431 39.0082 13.8268C37.9726 11.2225 36.1791 8.98898 33.86 7.41531C31.5409 5.84165 28.8028 5.00027 26.0002 5.00006Z" fill="#010E28"/>
<path fill-rule="evenodd" clip-rule="evenodd" d="M26.6248 13.22C26.4476 13.0785 26.2275 13.0015 26.0008 13.0015C25.774 13.0015 25.554 13.0785 25.3768 13.22L20.3768 17.22C20.1838 17.3899 20.0637 17.6275 20.0414 17.8836C20.019 18.1397 20.0962 18.3946 20.2567 18.5953C20.4173 18.796 20.649 18.9272 20.9038 18.9616C21.1585 18.996 21.4167 18.931 21.6248 18.78L26.0008 15.28L30.3768 18.78C30.4783 18.8694 30.5969 18.9373 30.7255 18.9795C30.854 19.0218 30.9898 19.0375 31.1246 19.0257C31.2593 19.0139 31.3903 18.975 31.5096 18.9111C31.6289 18.8472 31.734 18.7598 31.8185 18.6542C31.903 18.5486 31.9652 18.4269 32.0013 18.2965C32.0374 18.1661 32.0467 18.0297 32.0286 17.8957C32.0105 17.7616 31.9654 17.6326 31.896 17.5164C31.8265 17.4003 31.7343 17.2995 31.6248 17.22L26.6248 13.22Z" fill="#010E28"/>
<path fill-rule="evenodd" clip-rule="evenodd" d="M26.0005 13C25.7353 13 25.4809 13.1054 25.2934 13.2929C25.1058 13.4804 25.0005 13.7348 25.0005 14V26C25.0005 26.2652 25.1058 26.5196 25.2934 26.7071C25.4809 26.8946 25.7353 27 26.0005 27C26.2657 27 26.5201 26.8946 26.7076 26.7071C26.8951 26.5196 27.0005 26.2652 27.0005 26V14C27.0005 13.7348 26.8951 13.4804 26.7076 13.2929C26.5201 13.1054 26.2657 13 26.0005 13Z" fill="#010E28"/>
</svg>
