<svg width="48" height="48" viewBox="0 0 48 48" fill="none" xmlns="http://www.w3.org/2000/svg">
<g clip-path="url(#clip0_509_5151)">
<path d="M47 48H1C0.734784 48 0.48043 47.8946 0.292893 47.7071C0.105357 47.5196 0 47.2652 0 47C0 46.7348 0.105357 46.4804 0.292893 46.2929C0.48043 46.1054 0.734784 46 1 46H47C47.2652 46 47.5196 46.1054 47.7071 46.2929C47.8946 46.4804 48 46.7348 48 47C48 47.2652 47.8946 47.5196 47.7071 47.7071C47.5196 47.8946 47.2652 48 47 48Z" fill="#010E28"/>
<path d="M13 47.9999H3C2.73478 47.9999 2.48043 47.8946 2.29289 47.7071C2.10536 47.5195 2 47.2652 2 46.9999V35.9999C2 34.8979 2.896 33.9999 4 33.9999H12C13.104 33.9999 14 34.8979 14 35.9999V46.9999C14 47.2652 13.8946 47.5195 13.7071 47.7071C13.5196 47.8946 13.2652 47.9999 13 47.9999ZM4 45.9999H12V35.9999H4V45.9999ZM29 47.9999H19C18.7348 47.9999 18.4804 47.8946 18.2929 47.7071C18.1054 47.5195 18 47.2652 18 46.9999V23.9999C18 22.8979 18.896 21.9999 20 21.9999H28C29.104 21.9999 30 22.8979 30 23.9999V46.9999C30 47.2652 29.8946 47.5195 29.7071 47.7071C29.5196 47.8946 29.2652 47.9999 29 47.9999ZM20 45.9999H28V23.9999H20V45.9999ZM45 47.9999H35C34.7348 47.9999 34.4804 47.8946 34.2929 47.7071C34.1054 47.5195 34 47.2652 34 46.9999V27.9999C34 26.8979 34.896 25.9999 36 25.9999H44C45.104 25.9999 46 26.8979 46 27.9999V46.9999C46 47.2652 45.8946 47.5195 45.7071 47.7071C45.5196 47.8946 45.2652 47.9999 45 47.9999ZM36 45.9999H44V27.9999H36V45.9999ZM5 21.9999C4.80237 21.9999 4.60918 21.9413 4.44483 21.8315C4.28049 21.7218 4.15234 21.5658 4.07659 21.3833C4.00084 21.2007 3.98087 20.9998 4.01921 20.806C4.05755 20.6121 4.15247 20.4339 4.292 20.2939L14.292 10.2939C14.4136 10.1709 14.5652 10.0819 14.7319 10.0356C14.8985 9.98924 15.0744 9.98731 15.242 10.0299L30.694 13.8919L42.294 2.29194C42.4826 2.10978 42.7352 2.00899 42.9974 2.01127C43.2596 2.01355 43.5104 2.11872 43.6958 2.30412C43.8812 2.48953 43.9864 2.74034 43.9887 3.00254C43.991 3.26474 43.8902 3.51734 43.708 3.70594L31.708 15.7059C31.586 15.8283 31.4342 15.9167 31.2677 15.9627C31.1011 16.0086 30.9255 16.0104 30.758 15.9679L15.306 12.1079L5.706 21.7079C5.61333 21.8007 5.50326 21.8742 5.38211 21.9243C5.26096 21.9744 5.13111 22.0001 5 21.9999Z" fill="#010E28"/>
<path d="M43 12C42.7348 12 42.4804 11.8946 42.2929 11.7071C42.1054 11.5196 42 11.2652 42 11V4H35C34.7348 4 34.4804 3.89464 34.2929 3.70711C34.1054 3.51957 34 3.26522 34 3C34 2.73478 34.1054 2.48043 34.2929 2.29289C34.4804 2.10536 34.7348 2 35 2H43C43.2652 2 43.5196 2.10536 43.7071 2.29289C43.8946 2.48043 44 2.73478 44 3V11C44 11.2652 43.8946 11.5196 43.7071 11.7071C43.5196 11.8946 43.2652 12 43 12Z" fill="#010E28"/>
</g>
<defs>
<clipPath id="clip0_509_5151">
<rect width="48" height="48" fill="white"/>
</clipPath>
</defs>
</svg>
