<svg width="48" height="48" viewBox="0 0 48 48" fill="none" xmlns="http://www.w3.org/2000/svg">
<g clip-path="url(#clip0_509_2422)">
<path d="M45 40H3C1.346 40 0 38.654 0 37V11C0 9.346 1.346 8 3 8H3.86C4.12522 8 4.37957 8.10536 4.56711 8.29289C4.75464 8.48043 4.86 8.73478 4.86 9C4.86 9.26522 4.75464 9.51957 4.56711 9.70711C4.37957 9.89464 4.12522 10 3.86 10H3C2.73478 10 2.48043 10.1054 2.29289 10.2929C2.10536 10.4804 2 10.7348 2 11V37C2 37.2652 2.10536 37.5196 2.29289 37.7071C2.48043 37.8946 2.73478 38 3 38H45C45.2652 38 45.5196 37.8946 45.7071 37.7071C45.8946 37.5196 46 37.2652 46 37V11C46 10.7348 45.8946 10.4804 45.7071 10.2929C45.5196 10.1054 45.2652 10 45 10H44.14C43.8748 10 43.6204 9.89464 43.4329 9.70711C43.2454 9.51957 43.14 9.26522 43.14 9C43.14 8.73478 43.2454 8.48043 43.4329 8.29289C43.6204 8.10536 43.8748 8 44.14 8H45C46.654 8 48 9.346 48 11V37C48 38.654 46.654 40 45 40ZM33 48H15C14.7348 48 14.4804 47.8946 14.2929 47.7071C14.1054 47.5196 14 47.2652 14 47C14 46.7348 14.1054 46.4804 14.2929 46.2929C14.4804 46.1054 14.7348 46 15 46H33C33.2652 46 33.5196 46.1054 33.7071 46.2929C33.8946 46.4804 34 46.7348 34 47C34 47.2652 33.8946 47.5196 33.7071 47.7071C33.5196 47.8946 33.2652 48 33 48Z" fill="#010E28"/>
<path d="M21 48C20.7348 48 20.4804 47.8946 20.2929 47.7071C20.1054 47.5196 20 47.2652 20 47V39C20 38.7348 20.1054 38.4804 20.2929 38.2929C20.4804 38.1054 20.7348 38 21 38C21.2652 38 21.5196 38.1054 21.7071 38.2929C21.8946 38.4804 22 38.7348 22 39V47C22 47.2652 21.8946 47.5196 21.7071 47.7071C21.5196 47.8946 21.2652 48 21 48ZM27 48C26.7348 48 26.4804 47.8946 26.2929 47.7071C26.1054 47.5196 26 47.2652 26 47V39C26 38.7348 26.1054 38.4804 26.2929 38.2929C26.4804 38.1054 26.7348 38 27 38C27.2652 38 27.5196 38.1054 27.7071 38.2929C27.8946 38.4804 28 38.7348 28 39V47C28 47.2652 27.8946 47.5196 27.7071 47.7071C27.5196 47.8946 27.2652 48 27 48ZM13 10C10.242 10 8 7.756 8 5C8 2.244 10.242 0 13 0C15.758 0 18 2.244 18 5C18 7.756 15.758 10 13 10ZM13 2C11.346 2 10 3.346 10 5C10 6.654 11.346 8 13 8C14.654 8 16 6.654 16 5C16 3.346 14.654 2 13 2ZM35 10C32.242 10 30 7.756 30 5C30 2.244 32.242 0 35 0C37.758 0 40 2.244 40 5C40 7.756 37.758 10 35 10ZM35 2C33.346 2 32 3.346 32 5C32 6.654 33.346 8 35 8C36.654 8 38 6.654 38 5C38 3.346 36.654 2 35 2ZM15 24H11C9.346 24 8 22.654 8 21V17C8 15.346 9.346 14 11 14H15C16.654 14 18 15.346 18 17V21C18 22.654 16.654 24 15 24ZM11 16C10.7348 16 10.4804 16.1054 10.2929 16.2929C10.1054 16.4804 10 16.7348 10 17V21C10 21.2652 10.1054 21.5196 10.2929 21.7071C10.4804 21.8946 10.7348 22 11 22H15C15.2652 22 15.5196 21.8946 15.7071 21.7071C15.8946 21.5196 16 21.2652 16 21V17C16 16.7348 15.8946 16.4804 15.7071 16.2929C15.5196 16.1054 15.2652 16 15 16H11ZM37 24H33C31.346 24 30 22.654 30 21V17C30 15.346 31.346 14 33 14H37C38.654 14 40 15.346 40 17V21C40 22.654 38.654 24 37 24ZM33 16C32.7348 16 32.4804 16.1054 32.2929 16.2929C32.1054 16.4804 32 16.7348 32 17V21C32 21.2652 32.1054 21.5196 32.2929 21.7071C32.4804 21.8946 32.7348 22 33 22H37C37.2652 22 37.5196 21.8946 37.7071 21.7071C37.8946 21.5196 38 21.2652 38 21V17C38 16.7348 37.8946 16.4804 37.7071 16.2929C37.5196 16.1054 37.2652 16 37 16H33Z" fill="#010E28"/>
<path d="M31 6H17C16.7348 6 16.4804 5.89464 16.2929 5.70711C16.1054 5.51957 16 5.26522 16 5C16 4.73478 16.1054 4.48043 16.2929 4.29289C16.4804 4.10536 16.7348 4 17 4H31C31.2652 4 31.5196 4.10536 31.7071 4.29289C31.8946 4.48043 32 4.73478 32 5C32 5.26522 31.8946 5.51957 31.7071 5.70711C31.5196 5.89464 31.2652 6 31 6Z" fill="#010E28"/>
<path d="M24 20C23.7348 20 23.4804 19.8946 23.2929 19.7071C23.1054 19.5196 23 19.2652 23 19V5C23 4.73478 23.1054 4.48043 23.2929 4.29289C23.4804 4.10536 23.7348 4 24 4C24.2652 4 24.5196 4.10536 24.7071 4.29289C24.8946 4.48043 25 4.73478 25 5V19C25 19.2652 24.8946 19.5196 24.7071 19.7071C24.5196 19.8946 24.2652 20 24 20Z" fill="#010E28"/>
<path d="M31 20H17C16.7348 20 16.4804 19.8946 16.2929 19.7071C16.1054 19.5196 16 19.2652 16 19C16 18.7348 16.1054 18.4804 16.2929 18.2929C16.4804 18.1054 16.7348 18 17 18H31C31.2652 18 31.5196 18.1054 31.7071 18.2929C31.8946 18.4804 32 18.7348 32 19C32 19.2652 31.8946 19.5196 31.7071 19.7071C31.5196 19.8946 31.2652 20 31 20Z" fill="#010E28"/>
</g>
<defs>
<clipPath id="clip0_509_2422">
<rect width="48" height="48" fill="white"/>
</clipPath>
</defs>
</svg>
