<svg width="48" height="48" viewBox="0 0 48 48" fill="none" xmlns="http://www.w3.org/2000/svg">
<g clip-path="url(#clip0_509_5160)">
<path d="M45 2H3C2.73478 2 2.48043 1.89464 2.29289 1.70711C2.10536 1.51957 2 1.26522 2 1C2 0.734784 2.10536 0.48043 2.29289 0.292893C2.48043 0.105357 2.73478 0 3 0L45 0C45.2652 0 45.5196 0.105357 45.7071 0.292893C45.8946 0.48043 46 0.734784 46 1C46 1.26522 45.8946 1.51957 45.7071 1.70711C45.5196 1.89464 45.2652 2 45 2Z" fill="#010E28"/>
<path d="M37 24H33.2C32.9348 24 32.6804 23.8946 32.4929 23.7071C32.3054 23.5196 32.2 23.2652 32.2 23C32.2 22.7348 32.3054 22.4804 32.4929 22.2929C32.6804 22.1054 32.9348 22 33.2 22H37C38.654 22 40 20.654 40 19V2H8V19C8 20.654 9.346 22 11 22H14.8C15.0652 22 15.3196 22.1054 15.5071 22.2929C15.6946 22.4804 15.8 22.7348 15.8 23C15.8 23.2652 15.6946 23.5196 15.5071 23.7071C15.3196 23.8946 15.0652 24 14.8 24H11C9.67441 23.9984 8.40356 23.4711 7.46622 22.5338C6.52888 21.5964 6.00159 20.3256 6 19V1C6 0.734784 6.10536 0.48043 6.29289 0.292893C6.48043 0.105357 6.73478 0 7 0L41 0C41.2652 0 41.5196 0.105357 41.7071 0.292893C41.8946 0.48043 42 0.734784 42 1V19C42 21.756 39.756 24 37 24Z" fill="#010E28"/>
<path d="M15.9998 18C15.8022 18 15.609 17.9414 15.4446 17.8316C15.2803 17.7219 15.1521 17.5659 15.0764 17.3833C15.0006 17.2008 14.9807 16.9999 15.019 16.806C15.0573 16.6121 15.1523 16.434 15.2918 16.294L20.2918 11.294C20.4396 11.1448 20.6309 11.0462 20.8382 11.0124C21.0455 10.9786 21.2582 11.0114 21.4458 11.106L24.8018 12.784L31.2918 6.29402C31.4804 6.11186 31.733 6.01107 31.9952 6.01334C32.2574 6.01562 32.5082 6.12079 32.6936 6.3062C32.879 6.49161 32.9842 6.74242 32.9865 7.00462C32.9887 7.26681 32.8879 7.51942 32.7058 7.70802L25.7058 14.708C25.5572 14.8559 25.3659 14.9536 25.159 14.9873C24.952 15.021 24.7397 14.9891 24.5518 14.896L21.1958 13.218L16.7078 17.708C16.5196 17.8951 16.2651 18.0001 15.9998 18Z" fill="#010E28"/>
<path d="M32 14C31.7348 14 31.4804 13.8946 31.2929 13.7071C31.1054 13.5196 31 13.2652 31 13V8H26C25.7348 8 25.4804 7.89464 25.2929 7.70711C25.1054 7.51957 25 7.26522 25 7C25 6.73478 25.1054 6.48043 25.2929 6.29289C25.4804 6.10536 25.7348 6 26 6H32C32.2652 6 32.5196 6.10536 32.7071 6.29289C32.8946 6.48043 33 6.73478 33 7V13C33 13.2652 32.8946 13.5196 32.7071 13.7071C32.5196 13.8946 32.2652 14 32 14ZM40 34C37.794 34 36 32.206 36 30C36 27.794 37.794 26 40 26C42.206 26 44 27.794 44 30C44 32.206 42.206 34 40 34ZM40 28C38.898 28 38 28.898 38 30C38 31.102 38.898 32 40 32C41.102 32 42 31.102 42 30C42 28.898 41.102 28 40 28ZM47 44C46.7348 44 46.4804 43.8946 46.2929 43.7071C46.1054 43.5196 46 43.2652 46 43V41C46 39.346 44.654 38 43 38H37C36.7348 38 36.4804 37.8946 36.2929 37.7071C36.1054 37.5196 36 37.2652 36 37C36 36.7348 36.1054 36.4804 36.2929 36.2929C36.4804 36.1054 36.7348 36 37 36H43C45.756 36 48 38.244 48 41V43C48 43.2652 47.8946 43.5196 47.7071 43.7071C47.5196 43.8946 47.2652 44 47 44ZM8 34C5.794 34 4 32.206 4 30C4 27.794 5.794 26 8 26C10.206 26 12 27.794 12 30C12 32.206 10.206 34 8 34ZM8 28C6.898 28 6 28.898 6 30C6 31.102 6.898 32 8 32C9.102 32 10 31.102 10 30C10 28.898 9.102 28 8 28ZM1 44C0.734784 44 0.48043 43.8946 0.292893 43.7071C0.105357 43.5196 0 43.2652 0 43V41C0 38.244 2.244 36 5 36H11C11.2652 36 11.5196 36.1054 11.7071 36.2929C11.8946 36.4804 12 36.7348 12 37C12 37.2652 11.8946 37.5196 11.7071 37.7071C11.5196 37.8946 11.2652 38 11 38H5C3.346 38 2 39.346 2 41V43C2 43.2652 1.89464 43.5196 1.70711 43.7071C1.51957 43.8946 1.26522 44 1 44ZM24 35C20.692 35 18 32.308 18 29C18 25.692 20.692 23 24 23C27.308 23 30 25.692 30 29C30 32.308 27.308 35 24 35ZM24 25C21.794 25 20 26.794 20 29C20 31.206 21.794 33 24 33C26.206 33 28 31.206 28 29C28 26.794 26.206 25 24 25ZM34 48C33.7348 48 33.4804 47.8946 33.2929 47.7071C33.1054 47.5196 33 47.2652 33 47V43C33 41.346 31.654 40 30 40H18C16.346 40 15 41.346 15 43V47C15 47.2652 14.8946 47.5196 14.7071 47.7071C14.5196 47.8946 14.2652 48 14 48C13.7348 48 13.4804 47.8946 13.2929 47.7071C13.1054 47.5196 13 47.2652 13 47V43C13 40.244 15.244 38 18 38H30C32.756 38 35 40.244 35 43V47C35 47.2652 34.8946 47.5196 34.7071 47.7071C34.5196 47.8946 34.2652 48 34 48Z" fill="#010E28"/>
</g>
<defs>
<clipPath id="clip0_509_5160">
<rect width="48" height="48" fill="white"/>
</clipPath>
</defs>
</svg>
