<svg width="48" height="48" viewBox="0 0 48 48" fill="none" xmlns="http://www.w3.org/2000/svg">
<g clip-path="url(#clip0_509_5136)">
<path d="M34.16 29.72C33.9109 29.7224 33.6699 29.6315 33.4844 29.4652C33.2989 29.299 33.1822 29.0693 33.1574 28.8214C33.1326 28.5736 33.2014 28.3254 33.3503 28.1256C33.4992 27.9259 33.7174 27.789 33.962 27.742C39.782 26.556 45.796 18.9 46.146 8.002H39C38.7479 7.98247 38.5125 7.86853 38.3407 7.68296C38.169 7.49739 38.0736 7.25385 38.0736 7.001C38.0736 6.74815 38.169 6.50461 38.3407 6.31904C38.5125 6.13347 38.7479 6.01953 39 6H47.16C47.4252 6 47.6796 6.10536 47.8671 6.29289C48.0546 6.48043 48.16 6.73478 48.16 7C48.16 19.918 41.05 28.336 34.36 29.7C34.294 29.7125 34.2271 29.7192 34.16 29.72ZM13.822 29.68C13.748 29.6798 13.6743 29.6718 13.602 29.656C7.008 28.176 0 19.734 0 7C0 6.73478 0.105357 6.48043 0.292893 6.29289C0.48043 6.10536 0.734784 6 1 6H9C9.552 6 10.08 6.448 10.08 7C10.08 7.552 9.712 8 9.16 8H2.016C2.364 18.748 8.298 26.416 14.038 27.704C14.2821 27.7534 14.4988 27.8923 14.6458 28.0933C14.7927 28.2944 14.8592 28.5431 14.8321 28.7906C14.805 29.0381 14.6864 29.2666 14.4995 29.4312C14.3126 29.5957 14.071 29.6845 13.822 29.68ZM27 42H21C20.7348 42 20.4804 41.8946 20.2929 41.7071C20.1054 41.5196 20 41.2652 20 41V33.72C20 33.4548 20.1054 33.2004 20.2929 33.0129C20.4804 32.8254 20.7348 32.72 21 32.72C21.2652 32.72 21.5196 32.8254 21.7071 33.0129C21.8946 33.2004 22 33.4548 22 33.72V40H26V33.72C26 33.4548 26.1054 33.2004 26.2929 33.0129C26.4804 32.8254 26.7348 32.72 27 32.72C27.2652 32.72 27.5196 32.8254 27.7071 33.0129C27.8946 33.2004 28 33.4548 28 33.72V41C28 41.2652 27.8946 41.5196 27.7071 41.7071C27.5196 41.8946 27.2652 42 27 42Z" fill="#010E28"/>
<path d="M33 48H15C14.7348 48 14.4804 47.8946 14.2929 47.7071C14.1054 47.5196 14 47.2652 14 47V45C14 42.244 16.244 40 19 40H29C31.756 40 34 42.244 34 45V47C34 47.2652 33.8946 47.5196 33.7071 47.7071C33.5196 47.8946 33.2652 48 33 48ZM16 46H32V45C32 43.346 30.654 42 29 42H19C17.346 42 16 43.346 16 45V46ZM24 36C23.8919 35.9996 23.7846 35.9821 23.682 35.948C23.044 35.734 8.084 30.576 8 18.006V3C8 1.346 9.346 0 11 0H37C38.654 0 40 1.346 40 3V18C40 30.576 24.958 35.736 24.316 35.948C24.2141 35.9821 24.1074 35.9997 24 36ZM11 2C10.7348 2 10.4804 2.10536 10.2929 2.29289C10.1054 2.48043 10 2.73478 10 3V18C10.068 28.188 21.896 33.136 24 33.936C26.112 33.138 38 28.192 38 18V3C38 2.73478 37.8946 2.48043 37.7071 2.29289C37.5196 2.10536 37.2652 2 37 2H11Z" fill="#010E28"/>
</g>
<defs>
<clipPath id="clip0_509_5136">
<rect width="48" height="48" fill="white"/>
</clipPath>
</defs>
</svg>
