<svg width="48" height="48" viewBox="0 0 48 48" fill="none" xmlns="http://www.w3.org/2000/svg">
<g clip-path="url(#clip0_509_1836)">
<path d="M34 44C28.486 44 24 39.514 24 34C24 28.486 28.486 24 34 24C39.514 24 44 28.486 44 34C44 39.514 39.514 44 34 44ZM34 26C29.588 26 26 29.588 26 34C26 38.412 29.588 42 34 42C38.412 42 42 38.412 42 34C42 29.588 38.412 26 34 26Z" fill="#010E28"/>
<path d="M47 48C46.7347 48 46.4801 47.8951 46.292 47.708L39.656 41.072C39.4738 40.8834 39.373 40.6308 39.3753 40.3686C39.3776 40.1064 39.4828 39.8556 39.6682 39.6702C39.8536 39.4848 40.1044 39.3796 40.3666 39.3773C40.6288 39.375 40.8814 39.4758 41.07 39.658L47.706 46.294C47.8454 46.4338 47.9403 46.6118 47.9787 46.8055C48.0171 46.9992 47.9973 47.1999 47.9218 47.3824C47.8463 47.5648 47.7185 47.7209 47.5544 47.8308C47.3904 47.9407 47.1975 47.9996 47 48ZM21 42H5C3.67441 41.9984 2.40356 41.4711 1.46622 40.5338C0.528882 39.5964 0.00158786 38.3256 0 37L0 5C0 2.244 2.244 0 5 0H27C29.756 0 32 2.244 32 5V19C32 19.2652 31.8946 19.5196 31.7071 19.7071C31.5196 19.8946 31.2652 20 31 20C30.7348 20 30.4804 19.8946 30.2929 19.7071C30.1054 19.5196 30 19.2652 30 19V5C30 3.346 28.654 2 27 2H5C3.346 2 2 3.346 2 5V37C2 38.654 3.346 40 5 40H21C21.2652 40 21.5196 40.1054 21.7071 40.2929C21.8946 40.4804 22 40.7348 22 41C22 41.2652 21.8946 41.5196 21.7071 41.7071C21.5196 41.8946 21.2652 42 21 42Z" fill="#010E28"/>
<path d="M6.99979 26C6.80216 26 6.60897 25.9414 6.44462 25.8316C6.28027 25.7219 6.15213 25.5659 6.07638 25.3833C6.00063 25.2008 5.98066 24.9999 6.019 24.806C6.05734 24.6122 6.15226 24.434 6.29179 24.294L11.2918 19.294C11.4398 19.1443 11.6314 19.0455 11.8392 19.0117C12.0469 18.9779 12.26 19.0109 12.4478 19.106L15.8038 20.784L22.2938 14.294C22.4824 14.1119 22.735 14.0111 22.9972 14.0133C23.2594 14.0156 23.5102 14.1208 23.6956 14.3062C23.881 14.4916 23.9862 14.7424 23.9885 15.0046C23.9907 15.2668 23.8899 15.5194 23.7078 15.708L16.7078 22.708C16.5595 22.8565 16.3682 22.9545 16.1611 22.9882C15.954 23.022 15.7415 22.9897 15.5538 22.896L12.1978 21.218L7.70779 25.708C7.51964 25.8951 7.2651 26.0001 6.99979 26Z" fill="#010E28"/>
<path d="M23 22C22.7348 22 22.4804 21.8946 22.2929 21.7071C22.1054 21.5196 22 21.2652 22 21V16H17C16.7348 16 16.4804 15.8946 16.2929 15.7071C16.1054 15.5196 16 15.2652 16 15C16 14.7348 16.1054 14.4804 16.2929 14.2929C16.4804 14.1054 16.7348 14 17 14H23C23.2652 14 23.5196 14.1054 23.7071 14.2929C23.8946 14.4804 24 14.7348 24 15V21C24 21.2652 23.8946 21.5196 23.7071 21.7071C23.5196 21.8946 23.2652 22 23 22Z" fill="#010E28"/>
</g>
<defs>
<clipPath id="clip0_509_1836">
<rect width="48" height="48" fill="white"/>
</clipPath>
</defs>
</svg>
