<svg width="48" height="48" viewBox="0 0 48 48" fill="none" xmlns="http://www.w3.org/2000/svg">
<g clip-path="url(#clip0_509_1417)">
<path d="M24 40C15.178 40 8 32.822 8 24C8 15.178 15.178 8 24 8C32.822 8 40 15.178 40 24C40 32.822 32.822 40 24 40ZM24 10C16.28 10 10 16.28 10 24C10 31.718 16.28 38 24 38C31.72 38 38 31.718 38 24C38 16.28 31.72 10 24 10Z" fill="#010E28"/>
<path d="M25 31H20C19.7348 31 19.4804 30.8946 19.2929 30.7071C19.1054 30.5196 19 30.2652 19 30C19 29.7348 19.1054 29.4804 19.2929 29.2929C19.4804 29.1054 19.7348 29 20 29H25C25.515 28.977 26.0012 28.7562 26.3574 28.3836C26.7137 28.0111 26.9125 27.5155 26.9125 27C26.9125 26.4845 26.7137 25.9889 26.3574 25.6164C26.0012 25.2438 25.515 25.023 25 25H23C20.794 25 19 23.206 19 21C19 18.794 20.794 17 23 17H28C28.2652 17 28.5196 17.1054 28.7071 17.2929C28.8946 17.4804 29 17.7348 29 18C29 18.2652 28.8946 18.5196 28.7071 18.7071C28.5196 18.8946 28.2652 19 28 19H23C21.898 19 21 19.898 21 21C21 22.102 21.898 23 23 23H25C27.206 23 29 24.794 29 27C29 29.206 27.206 31 25 31Z" fill="#010E28"/>
<path d="M24 34C23.7348 34 23.4804 33.8946 23.2929 33.7071C23.1054 33.5196 23 33.2652 23 33V30C23 29.7348 23.1054 29.4804 23.2929 29.2929C23.4804 29.1054 23.7348 29 24 29C24.2652 29 24.5196 29.1054 24.7071 29.2929C24.8946 29.4804 25 29.7348 25 30V33C25 33.2652 24.8946 33.5196 24.7071 33.7071C24.5196 33.8946 24.2652 34 24 34ZM24 19C23.7348 19 23.4804 18.8946 23.2929 18.7071C23.1054 18.5196 23 18.2652 23 18V15C23 14.7348 23.1054 14.4804 23.2929 14.2929C23.4804 14.1054 23.7348 14 24 14C24.2652 14 24.5196 14.1054 24.7071 14.2929C24.8946 14.4804 25 14.7348 25 15V18C25 18.2652 24.8946 18.5196 24.7071 18.7071C24.5196 18.8946 24.2652 19 24 19Z" fill="#010E28"/>
<path d="M24 48C10.766 48 0 37.234 0 24C0 10.766 10.766 0 24 0C37.234 0 48 10.766 48 24C48 37.234 37.234 48 24 48ZM24 2C11.87 2 2 11.87 2 24C2 36.13 11.87 46 24 46C36.13 46 46 36.13 46 24C46 11.87 36.13 2 24 2Z" fill="#010E28"/>
<path d="M9 25H1C0.734784 25 0.48043 24.8946 0.292893 24.7071C0.105357 24.5196 0 24.2652 0 24C0 23.7348 0.105357 23.4804 0.292893 23.2929C0.48043 23.1054 0.734784 23 1 23H9C9.26522 23 9.51957 23.1054 9.70711 23.2929C9.89464 23.4804 10 23.7348 10 24C10 24.2652 9.89464 24.5196 9.70711 24.7071C9.51957 24.8946 9.26522 25 9 25ZM47 25H39C38.7348 25 38.4804 24.8946 38.2929 24.7071C38.1054 24.5196 38 24.2652 38 24C38 23.7348 38.1054 23.4804 38.2929 23.2929C38.4804 23.1054 38.7348 23 39 23H47C47.2652 23 47.5196 23.1054 47.7071 23.2929C47.8946 23.4804 48 23.7348 48 24C48 24.2652 47.8946 24.5196 47.7071 24.7071C47.5196 24.8946 47.2652 25 47 25ZM13.84 14H3.8C3.53478 14 3.28043 13.8946 3.09289 13.7071C2.90536 13.5196 2.8 13.2652 2.8 13C2.8 12.7348 2.90536 12.4804 3.09289 12.2929C3.28043 12.1054 3.53478 12 3.8 12H13.84C14.1052 12 14.3596 12.1054 14.5471 12.2929C14.7346 12.4804 14.84 12.7348 14.84 13C14.84 13.2652 14.7346 13.5196 14.5471 13.7071C14.3596 13.8946 14.1052 14 13.84 14ZM44.2 14H34.16C33.8948 14 33.6404 13.8946 33.4529 13.7071C33.2654 13.5196 33.16 13.2652 33.16 13C33.16 12.7348 33.2654 12.4804 33.4529 12.2929C33.6404 12.1054 33.8948 12 34.16 12H44.2C44.4652 12 44.7196 12.1054 44.9071 12.2929C45.0946 12.4804 45.2 12.7348 45.2 13C45.2 13.2652 45.0946 13.5196 44.9071 13.7071C44.7196 13.8946 44.4652 14 44.2 14ZM13.84 36H3.8C3.53478 36 3.28043 35.8946 3.09289 35.7071C2.90536 35.5196 2.8 35.2652 2.8 35C2.8 34.7348 2.90536 34.4804 3.09289 34.2929C3.28043 34.1054 3.53478 34 3.8 34H13.84C14.1052 34 14.3596 34.1054 14.5471 34.2929C14.7346 34.4804 14.84 34.7348 14.84 35C14.84 35.2652 14.7346 35.5196 14.5471 35.7071C14.3596 35.8946 14.1052 36 13.84 36ZM44.2 36H34.16C33.8948 36 33.6404 35.8946 33.4529 35.7071C33.2654 35.5196 33.16 35.2652 33.16 35C33.16 34.7348 33.2654 34.4804 33.4529 34.2929C33.6404 34.1054 33.8948 34 34.16 34H44.2C44.4652 34 44.7196 34.1054 44.9071 34.2929C45.0946 34.4804 45.2 34.7348 45.2 35C45.2 35.2652 45.0946 35.5196 44.9071 35.7071C44.7196 35.8946 44.4652 36 44.2 36Z" fill="#010E28"/>
<path d="M24.0003 48C23.8194 47.9997 23.6418 47.9507 23.4863 47.858C18.6205 44.9401 14.773 40.5926 12.4683 35.408C12.3244 35.1359 12.2001 34.8539 12.0963 34.564C12.0439 34.4407 12.0168 34.308 12.0166 34.174C12.0164 34.0399 12.0432 33.9072 12.0954 33.7837C12.1475 33.6602 12.224 33.5485 12.3202 33.4551C12.4164 33.3617 12.5304 33.2887 12.6554 33.2403C12.7804 33.1918 12.9139 33.1691 13.0479 33.1732C13.1819 33.1774 13.3136 33.2085 13.4354 33.2647C13.5571 33.3208 13.6663 33.4009 13.7565 33.5C13.8467 33.5992 13.916 33.7155 13.9603 33.842C14.0443 34.076 14.1443 34.308 14.2603 34.526C16.4008 39.3614 19.9819 43.4181 24.5143 46.142C24.7021 46.2544 24.8478 46.4253 24.9291 46.6284C25.0104 46.8316 25.0228 47.0558 24.9645 47.2667C24.9061 47.4776 24.7803 47.6635 24.6061 47.796C24.4319 47.9284 24.2191 48.0001 24.0003 48ZM13.0003 14.86C12.832 14.8601 12.6664 14.8177 12.5189 14.7367C12.3714 14.6557 12.2466 14.5388 12.1563 14.3968C12.0659 14.2548 12.0129 14.0923 12.0021 13.9244C11.9912 13.7564 12.023 13.5885 12.0943 13.436C12.2083 13.124 12.3443 12.816 12.5003 12.526C14.8042 7.36813 18.6399 3.04436 23.4863 0.142046C23.599 0.071577 23.7245 0.0242508 23.8556 0.00283119C23.9867 -0.0185884 24.1207 -0.013672 24.2499 0.0172933C24.3791 0.0482587 24.5008 0.104652 24.608 0.183181C24.7151 0.261709 24.8055 0.360799 24.874 0.474662C24.9424 0.588526 24.9874 0.714881 25.0065 0.84635C25.0255 0.977818 25.0182 1.11176 24.9849 1.24037C24.9516 1.36897 24.893 1.48965 24.8126 1.59536C24.7321 1.70107 24.6314 1.78969 24.5163 1.85605C20.002 4.56436 16.432 8.59808 14.2923 13.408C14.1639 13.6498 14.0529 13.9004 13.9603 14.158C13.9463 14.198 13.9283 14.236 13.9103 14.274C13.8313 14.4491 13.7033 14.5975 13.5419 14.7014C13.3804 14.8054 13.1924 14.8605 13.0003 14.86Z" fill="#010E28"/>
<path d="M24.0004 48C23.7814 48.0005 23.5683 47.9291 23.3938 47.7968C23.2193 47.6645 23.0931 47.4786 23.0345 47.2676C22.9759 47.0566 22.9882 46.8322 23.0695 46.6288C23.1507 46.4255 23.2965 46.2544 23.4844 46.142C27.9988 43.4353 31.5685 39.4019 33.7064 34.592C33.8544 34.31 33.9544 34.078 34.0384 33.844C34.054 33.8016 34.072 33.7602 34.0924 33.72C34.144 33.5951 34.2204 33.482 34.317 33.3874C34.4135 33.2929 34.5283 33.2189 34.6542 33.1699C34.7802 33.121 34.9147 33.098 35.0498 33.1025C35.1848 33.107 35.3176 33.1388 35.44 33.1961C35.5624 33.2533 35.672 33.3347 35.762 33.4354C35.8521 33.5362 35.9208 33.6541 35.964 33.7822C36.0073 33.9102 36.0241 34.0457 36.0135 34.1804C36.0029 34.3151 35.9651 34.4463 35.9024 34.566C35.7903 34.8782 35.6552 35.1817 35.4984 35.474C33.1957 40.6326 29.3597 44.9567 24.5124 47.858C24.3579 47.9513 24.1808 48.0004 24.0004 48ZM35.0004 14.86C34.8081 14.8603 34.6199 14.8052 34.4581 14.7013C34.2964 14.5973 34.168 14.449 34.0884 14.274C34.0704 14.236 34.0524 14.198 34.0384 14.158C33.9553 13.9229 33.855 13.6943 33.7384 13.474C31.5986 8.63814 28.0174 4.58125 23.4844 1.85796C23.2622 1.71892 23.1035 1.49823 23.0424 1.24336C22.9813 0.988487 23.0227 0.71982 23.1577 0.495173C23.2927 0.270525 23.5105 0.107856 23.7643 0.0421709C24.018 -0.023514 24.2874 0.0130364 24.5144 0.143956C29.3798 3.06238 33.2272 7.40981 35.5324 12.594C35.6564 12.82 35.7904 13.128 35.9044 13.438C35.9752 13.5901 36.0066 13.7577 35.9957 13.9252C35.9847 14.0927 35.9318 14.2548 35.8417 14.3965C35.7517 14.5381 35.6274 14.6548 35.4804 14.7358C35.3333 14.8168 35.1683 14.8595 35.0004 14.86Z" fill="#010E28"/>
</g>
<defs>
<clipPath id="clip0_509_1417">
<rect width="48" height="48" fill="white"/>
</clipPath>
</defs>
</svg>
