<svg width="48" height="48" viewBox="0 0 48 48" fill="none" xmlns="http://www.w3.org/2000/svg">
<g clip-path="url(#clip0_509_2406)">
<path d="M45 36H3C1.346 36 0 34.654 0 33V7C0 5.346 1.346 4 3 4H45C46.654 4 48 5.346 48 7V33C48 34.654 46.654 36 45 36ZM3 6C2.45 6 2 6.45 2 7V33C2 33.55 2.45 34 3 34H45C45.55 34 46 33.55 46 33V7C46 6.45 45.55 6 45 6H3ZM33 44H15C14.7348 44 14.4804 43.8946 14.2929 43.7071C14.1054 43.5196 14 43.2652 14 43C14 42.7348 14.1054 42.4804 14.2929 42.2929C14.4804 42.1054 14.7348 42 15 42H33C33.2652 42 33.5196 42.1054 33.7071 42.2929C33.8946 42.4804 34 42.7348 34 43C34 43.2652 33.8946 43.5196 33.7071 43.7071C33.5196 43.8946 33.2652 44 33 44Z" fill="#010E28"/>
<path d="M21 44C20.7348 44 20.4804 43.8946 20.2929 43.7071C20.1054 43.5196 20 43.2652 20 43V35C20 34.7348 20.1054 34.4804 20.2929 34.2929C20.4804 34.1054 20.7348 34 21 34C21.2652 34 21.5196 34.1054 21.7071 34.2929C21.8946 34.4804 22 34.7348 22 35V43C22 43.2652 21.8946 43.5196 21.7071 43.7071C21.5196 43.8946 21.2652 44 21 44ZM27 44C26.7348 44 26.4804 43.8946 26.2929 43.7071C26.1054 43.5196 26 43.2652 26 43V35C26 34.7348 26.1054 34.4804 26.2929 34.2929C26.4804 34.1054 26.7348 34 27 34C27.2652 34 27.5196 34.1054 27.7071 34.2929C27.8946 34.4804 28 34.7348 28 35V43C28 43.2652 27.8946 43.5196 27.7071 43.7071C27.5196 43.8946 27.2652 44 27 44ZM17 26C16.7348 26 16.4804 25.8946 16.2929 25.7071C16.1054 25.5196 16 25.2652 16 25V18C16 17.4696 15.7893 16.9609 15.4142 16.5858C15.0391 16.2107 14.5304 16 14 16C13.4696 16 12.9609 16.2107 12.5858 16.5858C12.2107 16.9609 12 17.4696 12 18V25C12 25.2652 11.8946 25.5196 11.7071 25.7071C11.5196 25.8946 11.2652 26 11 26C10.7348 26 10.4804 25.8946 10.2929 25.7071C10.1054 25.5196 10 25.2652 10 25V18C10 15.794 11.794 14 14 14C16.206 14 18 15.794 18 18V25C18 25.2652 17.8946 25.5196 17.7071 25.7071C17.5196 25.8946 17.2652 26 17 26Z" fill="#010E28"/>
<path d="M17 22H11C10.7348 22 10.4804 21.8946 10.2929 21.7071C10.1054 21.5196 10 21.2652 10 21C10 20.7348 10.1054 20.4804 10.2929 20.2929C10.4804 20.1054 10.7348 20 11 20H17C17.2652 20 17.5196 20.1054 17.7071 20.2929C17.8946 20.4804 18 20.7348 18 21C18 21.2652 17.8946 21.5196 17.7071 21.7071C17.5196 21.8946 17.2652 22 17 22ZM35 26C34.7348 26 34.4804 25.8946 34.2929 25.7071C34.1054 25.5196 34 25.2652 34 25V15C34 14.7348 34.1054 14.4804 34.2929 14.2929C34.4804 14.1054 34.7348 14 35 14C35.2652 14 35.5196 14.1054 35.7071 14.2929C35.8946 14.4804 36 14.7348 36 15V25C36 25.2652 35.8946 25.5196 35.7071 25.7071C35.5196 25.8946 35.2652 26 35 26ZM23 26C22.7348 26 22.4804 25.8946 22.2929 25.7071C22.1054 25.5196 22 25.2652 22 25V15C22 14.7348 22.1054 14.4804 22.2929 14.2929C22.4804 14.1054 22.7348 14 23 14H26C28.206 14 30 15.794 30 18C30 20.206 28.206 22 26 22H24V25C24 25.2652 23.8946 25.5196 23.7071 25.7071C23.5196 25.8946 23.2652 26 23 26ZM24 20H26C26.5304 20 27.0391 19.7893 27.4142 19.4142C27.7893 19.0391 28 18.5304 28 18C28 17.4696 27.7893 16.9609 27.4142 16.5858C27.0391 16.2107 26.5304 16 26 16H24V20Z" fill="#010E28"/>
</g>
<defs>
<clipPath id="clip0_509_2406">
<rect width="48" height="48" fill="white"/>
</clipPath>
</defs>
</svg>
