<svg width="48" height="48" viewBox="0 0 48 48" fill="none" xmlns="http://www.w3.org/2000/svg">
<g clip-path="url(#clip0_509_1374)">
<path d="M43 46H5C3.6744 45.9984 2.40356 45.4711 1.46622 44.5338C0.528882 43.5964 0.00158786 42.3256 0 41L0 7C0 4.244 2.242 2 5 2H43C45.758 2 48 4.244 48 7V41C48 43.756 45.758 46 43 46ZM5 4C3.346 4 2 5.346 2 7V41C2 42.654 3.346 44 5 44H43C44.654 44 46 42.654 46 41V7C46 5.346 44.654 4 43 4H5Z" fill="#010E28"/>
<path d="M47 12H1C0.734784 12 0.48043 11.8946 0.292893 11.7071C0.105357 11.5196 0 11.2652 0 11C0 10.7348 0.105357 10.4804 0.292893 10.2929C0.48043 10.1054 0.734784 10 1 10H47C47.2652 10 47.5196 10.1054 47.7071 10.2929C47.8946 10.4804 48 10.7348 48 11C48 11.2652 47.8946 11.5196 47.7071 11.7071C47.5196 11.8946 47.2652 12 47 12ZM9 24C7.346 24 6 22.654 6 21C6 19.346 7.346 18 9 18C10.654 18 12 19.346 12 21C12 22.654 10.654 24 9 24ZM9 20C8.73425 20.0005 8.4796 20.1066 8.29206 20.2949C8.10453 20.4832 7.99947 20.7383 8 21.004C8.00053 21.2697 8.10661 21.5244 8.29489 21.7119C8.48318 21.8995 8.73825 22.0045 9.004 22.004C9.26975 22.0035 9.5244 21.8974 9.71194 21.7091C9.89947 21.5208 10.0045 21.2657 10.004 21C10.0035 20.7343 9.89739 20.4796 9.70911 20.2921C9.52082 20.1045 9.26575 19.9995 9 20ZM24 26C22.346 26 21 24.654 21 23C21 21.346 22.346 20 24 20C25.654 20 27 21.346 27 23C27 24.654 25.654 26 24 26ZM24 22C23.7343 22.0005 23.4796 22.1066 23.2921 22.2949C23.1045 22.4832 22.9995 22.7383 23 23.004C23.0005 23.2697 23.1066 23.5244 23.2949 23.7119C23.4832 23.8995 23.7383 24.0045 24.004 24.004C24.1356 24.0037 24.2658 23.9776 24.3873 23.927C24.5088 23.8764 24.6191 23.8023 24.7119 23.7091C24.8048 23.6159 24.8784 23.5053 24.9285 23.3836C24.9786 23.2619 25.0043 23.1316 25.004 23C25.0037 22.8684 24.9776 22.7382 24.927 22.6167C24.8764 22.4952 24.8023 22.3849 24.7091 22.2921C24.6159 22.1992 24.5053 22.1256 24.3836 22.0755C24.2619 22.0254 24.1316 21.9997 24 22ZM39 22C37.346 22 36 20.654 36 19C36 17.346 37.346 16 39 16C40.654 16 42 17.346 42 19C42 20.654 40.654 22 39 22ZM39 18C38.8684 18.0003 38.7382 18.0264 38.6167 18.077C38.4952 18.1276 38.3849 18.2017 38.2921 18.2949C38.1992 18.3881 38.1256 18.4987 38.0755 18.6204C38.0254 18.7421 37.9997 18.8724 38 19.004C38.0003 19.1356 38.0264 19.2658 38.077 19.3873C38.1276 19.5088 38.2017 19.6191 38.2949 19.7119C38.3881 19.8048 38.4987 19.8784 38.6204 19.9285C38.7421 19.9786 38.8724 20.0043 39.004 20.004C39.2697 20.0035 39.5244 19.8974 39.7119 19.7091C39.8995 19.5208 40.0045 19.2657 40.004 19C40.0035 18.7343 39.8974 18.4796 39.7091 18.2921C39.5208 18.1045 39.2657 17.9995 39 18ZM24 39.5C23.7348 39.5 23.4804 39.3946 23.2929 39.2071C23.1054 39.0196 23 38.7652 23 38.5V31C23 30.7348 23.1054 30.4804 23.2929 30.2929C23.4804 30.1054 23.7348 30 24 30C24.2652 30 24.5196 30.1054 24.7071 30.2929C24.8946 30.4804 25 30.7348 25 31V38.5C25 38.7652 24.8946 39.0196 24.7071 39.2071C24.5196 39.3946 24.2652 39.5 24 39.5Z" fill="#010E28"/>
<path d="M39 40H9C8.73478 40 8.48043 39.8946 8.29289 39.7071C8.10536 39.5196 8 39.2652 8 39V29C8 28.7348 8.10536 28.4804 8.29289 28.2929C8.48043 28.1054 8.73478 28 9 28C9.26522 28 9.51957 28.1054 9.70711 28.2929C9.89464 28.4804 10 28.7348 10 29V38H38V27C38 26.7348 38.1054 26.4804 38.2929 26.2929C38.4804 26.1054 38.7348 26 39 26C39.2652 26 39.5196 26.1054 39.7071 26.2929C39.8946 26.4804 40 26.7348 40 27V39C40 39.2652 39.8946 39.5196 39.7071 39.7071C39.5196 39.8946 39.2652 40 39 40ZM25.66 21.512L36.822 18.558L37.334 20.492L26.174 23.444L25.66 21.512ZM10.848 22.252L11.114 20.268L22.154 21.748L21.886 23.732L10.848 22.252Z" fill="#010E28"/>
</g>
<defs>
<clipPath id="clip0_509_1374">
<rect width="48" height="48" fill="white"/>
</clipPath>
</defs>
</svg>
