<svg width="48" height="48" viewBox="0 0 48 48" fill="none" xmlns="http://www.w3.org/2000/svg">
<g clip-path="url(#clip0_509_2663)">
<path d="M35 48C27.832 48 22 42.168 22 35C22 27.832 27.832 22 35 22C42.168 22 48 27.832 48 35C48 42.168 42.168 48 35 48ZM35 24C28.934 24 24 28.934 24 35C24 41.066 28.934 46 35 46C41.066 46 46 41.066 46 35C46 28.934 41.066 24 35 24Z" fill="#010E28"/>
<path d="M40 41C39.7734 40.9998 39.5534 40.923 39.376 40.782L34.376 36.782C34.2588 36.6881 34.1642 36.5691 34.0992 36.4337C34.0341 36.2984 34.0002 36.1502 34 36V29C34 28.7348 34.1054 28.4804 34.2929 28.2929C34.4804 28.1054 34.7348 28 35 28C35.2652 28 35.5196 28.1054 35.7071 28.2929C35.8946 28.4804 36 28.7348 36 29V35.52L40.626 39.22C40.7864 39.3502 40.9026 39.5267 40.9588 39.7255C41.015 39.9243 41.0084 40.1356 40.9398 40.3304C40.8713 40.5253 40.7442 40.6942 40.576 40.8141C40.4077 40.9339 40.2066 40.9989 40 41ZM17 42H5C3.67441 41.9984 2.40356 41.4711 1.46622 40.5338C0.528882 39.5964 0.00158786 38.3256 0 37L0 5C0 2.244 2.244 0 5 0H27C29.756 0 32 2.244 32 5V17C32 17.2652 31.8946 17.5196 31.7071 17.7071C31.5196 17.8946 31.2652 18 31 18C30.7348 18 30.4804 17.8946 30.2929 17.7071C30.1054 17.5196 30 17.2652 30 17V5C30 3.346 28.654 2 27 2H5C3.346 2 2 3.346 2 5V37C2 38.654 3.346 40 5 40H17C17.2652 40 17.5196 40.1054 17.7071 40.2929C17.8946 40.4804 18 40.7348 18 41C18 41.2652 17.8946 41.5196 17.7071 41.7071C17.5196 41.8946 17.2652 42 17 42Z" fill="#010E28"/>
<path d="M6.99979 26C6.80216 26 6.60897 25.9414 6.44462 25.8316C6.28027 25.7219 6.15213 25.5659 6.07638 25.3833C6.00063 25.2008 5.98066 24.9999 6.019 24.806C6.05734 24.6122 6.15226 24.434 6.29179 24.294L11.2918 19.294C11.4399 19.1453 11.6312 19.0471 11.8384 19.0133C12.0456 18.9796 12.2581 19.012 12.4458 19.106L15.8018 20.784L22.2918 14.294C22.4804 14.1119 22.733 14.0111 22.9952 14.0133C23.2574 14.0156 23.5082 14.1208 23.6936 14.3062C23.879 14.4916 23.9842 14.7424 23.9865 15.0046C23.9887 15.2668 23.8879 15.5194 23.7058 15.708L16.7058 22.708C16.5575 22.8565 16.3662 22.9545 16.1591 22.9882C15.952 23.022 15.7395 22.9897 15.5518 22.896L12.1958 21.218L7.70579 25.708C7.61312 25.8008 7.50305 25.8743 7.3819 25.9244C7.26075 25.9745 7.13089 26.0002 6.99979 26Z" fill="#010E28"/>
<path d="M23 22C22.7348 22 22.4804 21.8946 22.2929 21.7071C22.1054 21.5196 22 21.2652 22 21V16H17C16.7348 16 16.4804 15.8946 16.2929 15.7071C16.1054 15.5196 16 15.2652 16 15C16 14.7348 16.1054 14.4804 16.2929 14.2929C16.4804 14.1054 16.7348 14 17 14H23C23.2652 14 23.5196 14.1054 23.7071 14.2929C23.8946 14.4804 24 14.7348 24 15V21C24 21.2652 23.8946 21.5196 23.7071 21.7071C23.5196 21.8946 23.2652 22 23 22Z" fill="#010E28"/>
</g>
<defs>
<clipPath id="clip0_509_2663">
<rect width="48" height="48" fill="white"/>
</clipPath>
</defs>
</svg>
