<svg width="48" height="48" viewBox="0 0 48 48" fill="none" xmlns="http://www.w3.org/2000/svg">
<g clip-path="url(#clip0_509_2366)">
<path d="M45 40H3C1.346 40 0 38.654 0 37V11C0 9.346 1.346 8 3 8H5C5.26522 8 5.51957 8.10536 5.70711 8.29289C5.89464 8.48043 6 8.73478 6 9C6 9.26522 5.89464 9.51957 5.70711 9.70711C5.51957 9.89464 5.26522 10 5 10H3C2.73478 10 2.48043 10.1054 2.29289 10.2929C2.10536 10.4804 2 10.7348 2 11V37C2 37.2652 2.10536 37.5196 2.29289 37.7071C2.48043 37.8946 2.73478 38 3 38H45C45.2652 38 45.5196 37.8946 45.7071 37.7071C45.8946 37.5196 46 37.2652 46 37V11C46 10.7348 45.8946 10.4804 45.7071 10.2929C45.5196 10.1054 45.2652 10 45 10H43C42.7348 10 42.4804 9.89464 42.2929 9.70711C42.1054 9.51957 42 9.26522 42 9C42 8.73478 42.1054 8.48043 42.2929 8.29289C42.4804 8.10536 42.7348 8 43 8H45C46.654 8 48 9.346 48 11V37C48 38.654 46.654 40 45 40ZM33 48H15C14.7348 48 14.4804 47.8946 14.2929 47.7071C14.1054 47.5196 14 47.2652 14 47C14 46.7348 14.1054 46.4804 14.2929 46.2929C14.4804 46.1054 14.7348 46 15 46H33C33.2652 46 33.5196 46.1054 33.7071 46.2929C33.8946 46.4804 34 46.7348 34 47C34 47.2652 33.8946 47.5196 33.7071 47.7071C33.5196 47.8946 33.2652 48 33 48Z" fill="#010E28"/>
<path d="M21 48C20.7348 48 20.4804 47.8946 20.2929 47.7071C20.1054 47.5196 20 47.2652 20 47V39C20 38.7348 20.1054 38.4804 20.2929 38.2929C20.4804 38.1054 20.7348 38 21 38C21.2652 38 21.5196 38.1054 21.7071 38.2929C21.8946 38.4804 22 38.7348 22 39V47C22 47.2652 21.8946 47.5196 21.7071 47.7071C21.5196 47.8946 21.2652 48 21 48ZM27 48C26.7348 48 26.4804 47.8946 26.2929 47.7071C26.1054 47.5196 26 47.2652 26 47V39C26 38.7348 26.1054 38.4804 26.2929 38.2929C26.4804 38.1054 26.7348 38 27 38C27.2652 38 27.5196 38.1054 27.7071 38.2929C27.8946 38.4804 28 38.7348 28 39V47C28 47.2652 27.8946 47.5196 27.7071 47.7071C27.5196 47.8946 27.2652 48 27 48ZM37 24H11C10.7348 24 10.4804 23.8946 10.2929 23.7071C10.1054 23.5196 10 23.2652 10 23V1C10 0.734784 10.1054 0.48043 10.2929 0.292893C10.4804 0.105357 10.7348 0 11 0L37 0C37.2652 0 37.5196 0.105357 37.7071 0.292893C37.8946 0.48043 38 0.734784 38 1V23C38 23.2652 37.8946 23.5196 37.7071 23.7071C37.5196 23.8946 37.2652 24 37 24ZM12 22H36V2H12V22Z" fill="#010E28"/>
<path d="M19 24C18.7348 24 18.4804 23.8946 18.2929 23.7071C18.1054 23.5196 18 23.2652 18 23V1C18 0.734784 18.1054 0.48043 18.2929 0.292893C18.4804 0.105357 18.7348 0 19 0C19.2652 0 19.5196 0.105357 19.7071 0.292893C19.8946 0.48043 20 0.734784 20 1V23C20 23.2652 19.8946 23.5196 19.7071 23.7071C19.5196 23.8946 19.2652 24 19 24Z" fill="#010E28"/>
<path d="M37 9H11C10.7348 9 10.4804 8.89464 10.2929 8.70711C10.1054 8.51957 10 8.26522 10 8C10 7.73478 10.1054 7.48043 10.2929 7.29289C10.4804 7.10536 10.7348 7 11 7H37C37.2652 7 37.5196 7.10536 37.7071 7.29289C37.8946 7.48043 38 7.73478 38 8C38 8.26522 37.8946 8.51957 37.7071 8.70711C37.5196 8.89464 37.2652 9 37 9ZM37 17H11C10.7348 17 10.4804 16.8946 10.2929 16.7071C10.1054 16.5196 10 16.2652 10 16C10 15.7348 10.1054 15.4804 10.2929 15.2929C10.4804 15.1054 10.7348 15 11 15H37C37.2652 15 37.5196 15.1054 37.7071 15.2929C37.8946 15.4804 38 15.7348 38 16C38 16.2652 37.8946 16.5196 37.7071 16.7071C37.5196 16.8946 37.2652 17 37 17Z" fill="#010E28"/>
</g>
<defs>
<clipPath id="clip0_509_2366">
<rect width="48" height="48" fill="white"/>
</clipPath>
</defs>
</svg>
