<svg width="48" height="48" viewBox="0 0 48 48" fill="none" xmlns="http://www.w3.org/2000/svg">
<g clip-path="url(#clip0_509_1803)">
<path d="M35 43C34.7348 43 34.4804 42.8946 34.2929 42.7071C34.1054 42.5196 34 42.2652 34 42V40C34 39.7348 34.1054 39.4804 34.2929 39.2929C34.4804 39.1054 34.7348 39 35 39C35.2652 39 35.5196 39.1054 35.7071 39.2929C35.8946 39.4804 36 39.7348 36 40V42C36 42.2652 35.8946 42.5196 35.7071 42.7071C35.5196 42.8946 35.2652 43 35 43Z" fill="#010E28"/>
<path d="M35.5 41H32C31.7348 41 31.4804 40.8946 31.2929 40.7071C31.1054 40.5196 31 40.2652 31 40C31 39.7348 31.1054 39.4804 31.2929 39.2929C31.4804 39.1054 31.7348 39 32 39H35.5C35.8978 39 36.2794 38.842 36.5607 38.5607C36.842 38.2794 37 37.8978 37 37.5C37 37.1022 36.842 36.7206 36.5607 36.4393C36.2794 36.158 35.8978 36 35.5 36H34.5C32.57 36 31 34.43 31 32.5C31 30.57 32.57 29 34.5 29H38C38.2652 29 38.5196 29.1054 38.7071 29.2929C38.8946 29.4804 39 29.7348 39 30C39 30.2652 38.8946 30.5196 38.7071 30.7071C38.5196 30.8946 38.2652 31 38 31H34.5C34.1022 31 33.7206 31.158 33.4393 31.4393C33.158 31.7206 33 32.1022 33 32.5C33 32.8978 33.158 33.2794 33.4393 33.5607C33.7206 33.842 34.1022 34 34.5 34H35.5C37.43 34 39 35.57 39 37.5C39 39.43 37.43 41 35.5 41Z" fill="#010E28"/>
<path d="M35 31C34.7348 31 34.4804 30.8946 34.2929 30.7071C34.1054 30.5196 34 30.2652 34 30V28C34 27.7348 34.1054 27.4804 34.2929 27.2929C34.4804 27.1054 34.7348 27 35 27C35.2652 27 35.5196 27.1054 35.7071 27.2929C35.8946 27.4804 36 27.7348 36 28V30C36 30.2652 35.8946 30.5196 35.7071 30.7071C35.5196 30.8946 35.2652 31 35 31Z" fill="#010E28"/>
<path d="M35 48C27.832 48 22 42.168 22 35C22 27.832 27.832 22 35 22C42.168 22 48 27.832 48 35C48 42.168 42.168 48 35 48ZM35 24C28.934 24 24 28.934 24 35C24 41.066 28.934 46 35 46C41.066 46 46 41.066 46 35C46 28.934 41.066 24 35 24Z" fill="#010E28"/>
<path d="M17 42H5C3.67441 41.9984 2.40356 41.4711 1.46622 40.5338C0.528882 39.5964 0.00158786 38.3256 0 37L0 5C0 2.244 2.244 0 5 0H27C29.756 0 32 2.244 32 5V17C32 17.2652 31.8946 17.5196 31.7071 17.7071C31.5196 17.8946 31.2652 18 31 18C30.7348 18 30.4804 17.8946 30.2929 17.7071C30.1054 17.5196 30 17.2652 30 17V5C30 3.346 28.654 2 27 2H5C3.346 2 2 3.346 2 5V37C2 38.654 3.346 40 5 40H17C17.2652 40 17.5196 40.1054 17.7071 40.2929C17.8946 40.4804 18 40.7348 18 41C18 41.2652 17.8946 41.5196 17.7071 41.7071C17.5196 41.8946 17.2652 42 17 42Z" fill="#010E28"/>
<path d="M6.99979 26C6.80216 26 6.60897 25.9414 6.44462 25.8316C6.28027 25.7219 6.15213 25.5659 6.07638 25.3833C6.00063 25.2008 5.98066 24.9999 6.019 24.806C6.05734 24.6122 6.15226 24.434 6.29179 24.294L11.2918 19.294C11.4396 19.1448 11.6309 19.0462 11.8382 19.0124C12.0455 18.9786 12.2582 19.0114 12.4458 19.106L15.8018 20.784L22.2918 14.294C22.4804 14.1119 22.733 14.0111 22.9952 14.0133C23.2574 14.0156 23.5082 14.1208 23.6936 14.3062C23.879 14.4916 23.9842 14.7424 23.9865 15.0046C23.9887 15.2668 23.8879 15.5194 23.7058 15.708L16.7058 22.708C16.5573 22.8562 16.3661 22.9541 16.1591 22.9878C15.952 23.0215 15.7396 22.9894 15.5518 22.896L12.1958 21.218L7.70579 25.708C7.61312 25.8008 7.50305 25.8743 7.3819 25.9244C7.26075 25.9745 7.13089 26.0002 6.99979 26Z" fill="#010E28"/>
<path d="M23 22C22.7348 22 22.4804 21.8946 22.2929 21.7071C22.1054 21.5196 22 21.2652 22 21V16H17C16.7348 16 16.4804 15.8946 16.2929 15.7071C16.1054 15.5196 16 15.2652 16 15C16 14.7348 16.1054 14.4804 16.2929 14.2929C16.4804 14.1054 16.7348 14 17 14H23C23.2652 14 23.5196 14.1054 23.7071 14.2929C23.8946 14.4804 24 14.7348 24 15V21C24 21.2652 23.8946 21.5196 23.7071 21.7071C23.5196 21.8946 23.2652 22 23 22Z" fill="#010E28"/>
</g>
<defs>
<clipPath id="clip0_509_1803">
<rect width="48" height="48" fill="white"/>
</clipPath>
</defs>
</svg>
