<svg width="48" height="48" viewBox="0 0 48 48" fill="none" xmlns="http://www.w3.org/2000/svg">
<g clip-path="url(#clip0_509_2393)">
<path d="M45 40H3C1.346 40 3.24088e-07 38.654 3.24088e-07 37V11C-0.000321557 10.3072 0.239133 9.63565 0.677706 9.09938C1.11628 8.5631 1.72694 8.19514 2.406 8.05797C2.53491 8.03155 2.66779 8.03104 2.7969 8.05647C2.92601 8.0819 3.04877 8.13277 3.15803 8.2061C3.26729 8.27944 3.36086 8.37378 3.43331 8.48364C3.50575 8.59349 3.55562 8.71666 3.58 8.84597C3.63113 9.10614 3.57685 9.37597 3.42908 9.59612C3.28131 9.81628 3.05215 9.96873 2.792 10.02C2.56743 10.0673 2.36605 10.1907 2.22179 10.3692C2.07753 10.5477 1.9992 10.7705 2 11V37C2 37.2652 2.10536 37.5195 2.29289 37.7071C2.48043 37.8946 2.73478 38 3 38H45C45.2652 38 45.5196 37.8946 45.7071 37.7071C45.8946 37.5195 46 37.2652 46 37V11C46.0008 10.7705 45.9225 10.5477 45.7782 10.3692C45.634 10.1907 45.4326 10.0673 45.208 10.02C45.077 9.99688 44.952 9.9479 44.8402 9.8759C44.7284 9.8039 44.6321 9.71032 44.5569 9.60064C44.4817 9.49096 44.4291 9.36738 44.4022 9.23714C44.3754 9.10689 44.3748 8.9726 44.4004 8.84212C44.4261 8.71164 44.4775 8.58758 44.5517 8.47722C44.6259 8.36686 44.7214 8.27241 44.8325 8.19939C44.9437 8.12637 45.0683 8.07625 45.199 8.05197C45.3298 8.02769 45.4641 8.02973 45.594 8.05797C46.2731 8.19514 46.8837 8.5631 47.3223 9.09938C47.7609 9.63565 48.0003 10.3072 48 11V37C48 38.654 46.654 40 45 40ZM33 48H15C14.7348 48 14.4804 47.8946 14.2929 47.7071C14.1054 47.5195 14 47.2652 14 47C14 46.7348 14.1054 46.4804 14.2929 46.2929C14.4804 46.1053 14.7348 46 15 46H33C33.2652 46 33.5196 46.1053 33.7071 46.2929C33.8946 46.4804 34 46.7348 34 47C34 47.2652 33.8946 47.5195 33.7071 47.7071C33.5196 47.8946 33.2652 48 33 48Z" fill="#010E28"/>
<path d="M21 48C20.7348 48 20.4804 47.8946 20.2929 47.7071C20.1054 47.5196 20 47.2652 20 47V39C20 38.7348 20.1054 38.4804 20.2929 38.2929C20.4804 38.1054 20.7348 38 21 38C21.2652 38 21.5196 38.1054 21.7071 38.2929C21.8946 38.4804 22 38.7348 22 39V47C22 47.2652 21.8946 47.5196 21.7071 47.7071C21.5196 47.8946 21.2652 48 21 48ZM27 48C26.7348 48 26.4804 47.8946 26.2929 47.7071C26.1054 47.5196 26 47.2652 26 47V39C26 38.7348 26.1054 38.4804 26.2929 38.2929C26.4804 38.1054 26.7348 38 27 38C27.2652 38 27.5196 38.1054 27.7071 38.2929C27.8946 38.4804 28 38.7348 28 39V47C28 47.2652 27.8946 47.5196 27.7071 47.7071C27.5196 47.8946 27.2652 48 27 48ZM24 8C21.794 8 20 6.206 20 4C20 1.794 21.794 0 24 0C26.206 0 28 1.794 28 4C28 6.206 26.206 8 24 8ZM24 2C23.485 2.02304 22.9988 2.24381 22.6426 2.61636C22.2863 2.98892 22.0875 3.48453 22.0875 4C22.0875 4.51547 22.2863 5.01108 22.6426 5.38364C22.9988 5.75619 23.485 5.97696 24 6C24.515 5.97696 25.0012 5.75619 25.3574 5.38364C25.7137 5.01108 25.9125 4.51547 25.9125 4C25.9125 3.48453 25.7137 2.98892 25.3574 2.61636C25.0012 2.24381 24.515 2.02304 24 2Z" fill="#010E28"/>
<path d="M24 28C23.7348 28 23.4804 27.8946 23.2929 27.7071C23.1054 27.5196 23 27.2652 23 27V7C23 6.73478 23.1054 6.48043 23.2929 6.29289C23.4804 6.10536 23.7348 6 24 6C24.2652 6 24.5196 6.10536 24.7071 6.29289C24.8946 6.48043 25 6.73478 25 7V27C25 27.2652 24.8946 27.5196 24.7071 27.7071C24.5196 27.8946 24.2652 28 24 28ZM17 28C16.7348 28 16.4804 27.8946 16.2929 27.7071C16.1054 27.5196 16 27.2652 16 27V20C16 19.7348 16.1054 19.4804 16.2929 19.2929C16.4804 19.1054 16.7348 19 17 19C17.2652 19 17.5196 19.1054 17.7071 19.2929C17.8946 19.4804 18 19.7348 18 20V27C18 27.2652 17.8946 27.5196 17.7071 27.7071C17.5196 27.8946 17.2652 28 17 28Z" fill="#010E28"/>
<path d="M17 21C16.7347 21 16.4801 20.8951 16.292 20.708L9.292 13.708C9.10531 13.5196 9.0004 13.2652 9 13V7C9 6.73478 9.10536 6.48043 9.29289 6.29289C9.48043 6.10536 9.73478 6 10 6C10.2652 6 10.5196 6.10536 10.7071 6.29289C10.8946 6.48043 11 6.73478 11 7V12.586L17.708 19.294C17.8475 19.434 17.9425 19.6121 17.9808 19.806C18.0191 19.9999 17.9992 20.2008 17.9234 20.3833C17.8477 20.5658 17.7195 20.7218 17.5552 20.8316C17.3908 20.9414 17.1976 21 17 21Z" fill="#010E28"/>
<path d="M10 8C7.794 8 6 6.206 6 4C6 1.794 7.794 0 10 0C12.206 0 14 1.794 14 4C14 6.206 12.206 8 10 8ZM10 2C9.48504 2.02304 8.99881 2.24381 8.64255 2.61636C8.28629 2.98892 8.08747 3.48453 8.08747 4C8.08747 4.51548 8.28629 5.01109 8.64255 5.38364C8.99881 5.75619 9.48504 5.97697 10 6C10.515 5.97697 11.0012 5.75619 11.3574 5.38364C11.7137 5.01109 11.9125 4.51548 11.9125 4C11.9125 3.48453 11.7137 2.98892 11.3574 2.61636C11.0012 2.24381 10.515 2.02304 10 2ZM31 28C30.7348 28 30.4804 27.8946 30.2929 27.7071C30.1054 27.5196 30 27.2652 30 27V20C30 19.7348 30.1054 19.4804 30.2929 19.2929C30.4804 19.1054 30.7348 19 31 19C31.2652 19 31.5196 19.1054 31.7071 19.2929C31.8946 19.4804 32 19.7348 32 20V27C32 27.2652 31.8946 27.5196 31.7071 27.7071C31.5196 27.8946 31.2652 28 31 28Z" fill="#010E28"/>
<path d="M30.9998 21C30.8022 21 30.609 20.9414 30.4446 20.8316C30.2803 20.7218 30.1521 20.5658 30.0764 20.3833C30.0006 20.2008 29.9807 19.9999 30.019 19.806C30.0573 19.6121 30.1523 19.434 30.2918 19.294L36.9998 12.586V7C36.9998 6.73478 37.1051 6.48043 37.2927 6.29289C37.4802 6.10536 37.7346 6 37.9998 6C38.265 6 38.5194 6.10536 38.7069 6.29289C38.8944 6.48043 38.9998 6.73478 38.9998 7V13C38.9998 13.266 38.8938 13.52 38.7078 13.708L31.7078 20.708C31.5196 20.8951 31.2651 21 30.9998 21Z" fill="#010E28"/>
<path d="M38 8C35.794 8 34 6.206 34 4C34 1.794 35.794 0 38 0C40.206 0 42 1.794 42 4C42 6.206 40.206 8 38 8ZM38 2C37.485 2.02304 36.9988 2.24381 36.6426 2.61636C36.2863 2.98892 36.0875 3.48453 36.0875 4C36.0875 4.51547 36.2863 5.01108 36.6426 5.38364C36.9988 5.75619 37.485 5.97696 38 6C38.515 5.97696 39.0012 5.75619 39.3574 5.38364C39.7137 5.01108 39.9125 4.51547 39.9125 4C39.9125 3.48453 39.7137 2.98892 39.3574 2.61636C39.0012 2.24381 38.515 2.02304 38 2Z" fill="#010E28"/>
</g>
<defs>
<clipPath id="clip0_509_2393">
<rect width="48" height="48" fill="white"/>
</clipPath>
</defs>
</svg>
