<svg width="48" height="48" viewBox="0 0 48 48" fill="none" xmlns="http://www.w3.org/2000/svg">
<g clip-path="url(#clip0_509_5169)">
<path d="M1.23835 40.002L0.972349 40C0.707275 39.9921 0.456122 39.8795 0.273926 39.6868C0.0917303 39.4942 -0.00664804 39.2371 0.000349278 38.972C0.0163493 38.42 0.502349 38.024 1.02835 38C1.35035 37.996 35.3284 38.6 43.0303 8.75C43.1012 8.49835 43.2678 8.28447 43.4945 8.15417C43.7212 8.02387 43.9898 7.98751 44.243 8.05289C44.4961 8.11827 44.7136 8.28017 44.8488 8.50393C44.984 8.72769 45.0262 8.9955 44.9664 9.25C37.2344 39.216 4.53435 40.002 1.23835 40.002Z" fill="#010E28"/>
<path d="M47 15.196C46.8241 15.1963 46.6513 15.1503 46.4989 15.0625C46.3465 14.9747 46.2199 14.8483 46.132 14.696L43.632 10.366L39.302 12.866C39.0724 12.9965 38.8006 13.0309 38.5457 12.9617C38.2909 12.8925 38.0738 12.7253 37.9417 12.4967C37.8097 12.268 37.7735 11.9963 37.841 11.741C37.9085 11.4857 38.0742 11.2675 38.302 11.134L43.498 8.13396C43.7277 8.00136 44.0006 7.96542 44.2568 8.03406C44.513 8.1027 44.7314 8.27029 44.864 8.49996L47.864 13.696C47.9517 13.8478 47.9979 14.0201 47.998 14.1955C47.9981 14.3708 47.952 14.5431 47.8645 14.6951C47.777 14.847 47.651 14.9733 47.4993 15.0612C47.3476 15.1491 47.1754 15.1956 47 15.196ZM43 48C42.7348 48 42.4804 47.8946 42.2929 47.7071C42.1054 47.5195 42 47.2652 42 47V21C42 20.7347 42.1054 20.4804 42.2929 20.2929C42.4804 20.1053 42.7348 20 43 20C43.2652 20 43.5196 20.1053 43.7071 20.2929C43.8946 20.4804 44 20.7347 44 21V47C44 47.2652 43.8946 47.5195 43.7071 47.7071C43.5196 47.8946 43.2652 48 43 48ZM31 48C30.7348 48 30.4804 47.8946 30.2929 47.7071C30.1054 47.5195 30 47.2652 30 47V35C30 34.7347 30.1054 34.4804 30.2929 34.2929C30.4804 34.1053 30.7348 34 31 34C31.2652 34 31.5196 34.1053 31.7071 34.2929C31.8946 34.4804 32 34.7347 32 35V47C32 47.2652 31.8946 47.5195 31.7071 47.7071C31.5196 47.8946 31.2652 48 31 48ZM19 48C18.7348 48 18.4804 47.8946 18.2929 47.7071C18.1054 47.5195 18 47.2652 18 47V41C18 40.7347 18.1054 40.4804 18.2929 40.2929C18.4804 40.1053 18.7348 40 19 40C19.2652 40 19.5196 40.1053 19.7071 40.2929C19.8946 40.4804 20 40.7347 20 41V47C20 47.2652 19.8946 47.5195 19.7071 47.7071C19.5196 47.8946 19.2652 48 19 48ZM7 48C6.73478 48 6.48043 47.8946 6.29289 47.7071C6.10536 47.5195 6 47.2652 6 47V44C6 43.7347 6.10536 43.4804 6.29289 43.2929C6.48043 43.1053 6.73478 43 7 43C7.26522 43 7.51957 43.1053 7.70711 43.2929C7.89464 43.4804 8 43.7347 8 44V47C8 47.2652 7.89464 47.5195 7.70711 47.7071C7.51957 47.8946 7.26522 48 7 48ZM19 26H1C0.734784 26 0.48043 25.8946 0.292893 25.7071C0.105357 25.5195 0 25.2652 0 25V22.658C0 21.322 0.52 20.066 1.464 19.122L4 16.586V10.902C4 8.48796 4.81 6.10796 6.282 4.19396L9.208 0.389961C9.30524 0.274289 9.42662 0.181292 9.56361 0.117491C9.70059 0.0536897 9.84988 0.0206299 10.001 0.0206299C10.1521 0.0206299 10.3014 0.0536897 10.4384 0.117491C10.5754 0.181292 10.6968 0.274289 10.794 0.389961L13.72 4.19396C15.1949 6.11953 15.996 8.47647 16 10.902V16.586L18.536 19.122C19.48 20.066 20 21.322 20 22.658V25C20 25.2652 19.8946 25.5195 19.7071 25.7071C19.5196 25.8946 19.2652 26 19 26ZM2 24H18V22.658C18 21.856 17.688 21.104 17.122 20.536L14.292 17.708C14.1053 17.5196 14.0004 17.2652 14 17V10.902C14 8.92796 13.336 6.97996 12.132 5.41396L10 2.63996L7.868 5.41396C6.66015 6.98884 6.00376 8.91724 6 10.902V17C6 17.266 5.894 17.52 5.708 17.708L2.88 20.536C2.312 21.102 2 21.856 2 22.658V24Z" fill="#010E28"/>
<path d="M15 30C14.7348 30 14.4804 29.8946 14.2929 29.7071C14.1054 29.5196 14 29.2652 14 29V25C14 24.7348 14.1054 24.4804 14.2929 24.2929C14.4804 24.1054 14.7348 24 15 24C15.2652 24 15.5196 24.1054 15.7071 24.2929C15.8946 24.4804 16 24.7348 16 25V29C16 29.2652 15.8946 29.5196 15.7071 29.7071C15.5196 29.8946 15.2652 30 15 30ZM5 30C4.73478 30 4.48043 29.8946 4.29289 29.7071C4.10536 29.5196 4 29.2652 4 29V25C4 24.7348 4.10536 24.4804 4.29289 24.2929C4.48043 24.1054 4.73478 24 5 24C5.26522 24 5.51957 24.1054 5.70711 24.2929C5.89464 24.4804 6 24.7348 6 25V29C6 29.2652 5.89464 29.5196 5.70711 29.7071C5.51957 29.8946 5.26522 30 5 30Z" fill="#010E28"/>
</g>
<defs>
<clipPath id="clip0_509_5169">
<rect width="48" height="48" fill="white"/>
</clipPath>
</defs>
</svg>
