<svg width="48" height="48" viewBox="0 0 48 48" fill="none" xmlns="http://www.w3.org/2000/svg">
<g clip-path="url(#clip0_509_2375)">
<path d="M25 26H20C19.7348 26 19.4804 25.8946 19.2929 25.7071C19.1054 25.5196 19 25.2652 19 25C19 24.7348 19.1054 24.4804 19.2929 24.2929C19.4804 24.1054 19.7348 24 20 24H25C25.515 23.977 26.0012 23.7562 26.3574 23.3836C26.7137 23.0111 26.9125 22.5155 26.9125 22C26.9125 21.4845 26.7137 20.9889 26.3574 20.6164C26.0012 20.2438 25.515 20.023 25 20H23C20.794 20 19 18.206 19 16C19 13.794 20.794 12 23 12H28C28.2652 12 28.5196 12.1054 28.7071 12.2929C28.8946 12.4804 29 12.7348 29 13C29 13.2652 28.8946 13.5196 28.7071 13.7071C28.5196 13.8946 28.2652 14 28 14H23C22.485 14.023 21.9988 14.2438 21.6426 14.6164C21.2863 14.9889 21.0875 15.4845 21.0875 16C21.0875 16.5155 21.2863 17.0111 21.6426 17.3836C21.9988 17.7562 22.485 17.977 23 18H25C27.206 18 29 19.794 29 22C29 24.206 27.206 26 25 26Z" fill="#010E28"/>
<path d="M24 14C23.7348 14 23.4804 13.8946 23.2929 13.7071C23.1054 13.5196 23 13.2652 23 13V9C23 8.73478 23.1054 8.48043 23.2929 8.29289C23.4804 8.10536 23.7348 8 24 8C24.2652 8 24.5196 8.10536 24.7071 8.29289C24.8946 8.48043 25 8.73478 25 9V13C25 13.2652 24.8946 13.5196 24.7071 13.7071C24.5196 13.8946 24.2652 14 24 14ZM24 30C23.7348 30 23.4804 29.8946 23.2929 29.7071C23.1054 29.5196 23 29.2652 23 29V25C23 24.7348 23.1054 24.4804 23.2929 24.2929C23.4804 24.1054 23.7348 24 24 24C24.2652 24 24.5196 24.1054 24.7071 24.2929C24.8946 24.4804 25 24.7348 25 25V29C25 29.2652 24.8946 29.5196 24.7071 29.7071C24.5196 29.8946 24.2652 30 24 30Z" fill="#010E28"/>
<path d="M45 36H3C1.346 36 0 34.654 0 33V7C0 5.346 1.346 4 3 4H45C46.654 4 48 5.346 48 7V33C48 34.654 46.654 36 45 36ZM3 6C2.73478 6 2.48043 6.10536 2.29289 6.29289C2.10536 6.48043 2 6.73478 2 7V33C2 33.2652 2.10536 33.5196 2.29289 33.7071C2.48043 33.8946 2.73478 34 3 34H45C45.2652 34 45.5196 33.8946 45.7071 33.7071C45.8946 33.5196 46 33.2652 46 33V7C46 6.73478 45.8946 6.48043 45.7071 6.29289C45.5196 6.10536 45.2652 6 45 6H3ZM33 44H15C14.7348 44 14.4804 43.8946 14.2929 43.7071C14.1054 43.5196 14 43.2652 14 43C14 42.7348 14.1054 42.4804 14.2929 42.2929C14.4804 42.1054 14.7348 42 15 42H33C33.2652 42 33.5196 42.1054 33.7071 42.2929C33.8946 42.4804 34 42.7348 34 43C34 43.2652 33.8946 43.5196 33.7071 43.7071C33.5196 43.8946 33.2652 44 33 44Z" fill="#010E28"/>
<path d="M21 44C20.7348 44 20.4804 43.8946 20.2929 43.7071C20.1054 43.5196 20 43.2652 20 43V35C20 34.7348 20.1054 34.4804 20.2929 34.2929C20.4804 34.1054 20.7348 34 21 34C21.2652 34 21.5196 34.1054 21.7071 34.2929C21.8946 34.4804 22 34.7348 22 35V43C22 43.2652 21.8946 43.5196 21.7071 43.7071C21.5196 43.8946 21.2652 44 21 44ZM27 44C26.7348 44 26.4804 43.8946 26.2929 43.7071C26.1054 43.5196 26 43.2652 26 43V35C26 34.7348 26.1054 34.4804 26.2929 34.2929C26.4804 34.1054 26.7348 34 27 34C27.2652 34 27.5196 34.1054 27.7071 34.2929C27.8946 34.4804 28 34.7348 28 35V43C28 43.2652 27.8946 43.5196 27.7071 43.7071C27.5196 43.8946 27.2652 44 27 44Z" fill="#010E28"/>
</g>
<defs>
<clipPath id="clip0_509_2375">
<rect width="48" height="48" fill="white"/>
</clipPath>
</defs>
</svg>
