<svg width="48" height="48" viewBox="0 0 48 48" fill="none" xmlns="http://www.w3.org/2000/svg">
<g clip-path="url(#clip0_509_2357)">
<path d="M45 40H3C1.346 40 0 38.654 0 37V11C0 9.346 1.346 8 3 8H45C46.654 8 48 9.346 48 11V37C48 38.654 46.654 40 45 40ZM3 10C2.73478 10 2.48043 10.1054 2.29289 10.2929C2.10536 10.4804 2 10.7348 2 11V37C2 37.2652 2.10536 37.5196 2.29289 37.7071C2.48043 37.8946 2.73478 38 3 38H45C45.2652 38 45.5196 37.8946 45.7071 37.7071C45.8946 37.5196 46 37.2652 46 37V11C46 10.7348 45.8946 10.4804 45.7071 10.2929C45.5196 10.1054 45.2652 10 45 10H3ZM33 48H15C14.7348 48 14.4804 47.8946 14.2929 47.7071C14.1054 47.5196 14 47.2652 14 47C14 46.7348 14.1054 46.4804 14.2929 46.2929C14.4804 46.1054 14.7348 46 15 46H33C33.2652 46 33.5196 46.1054 33.7071 46.2929C33.8946 46.4804 34 46.7348 34 47C34 47.2652 33.8946 47.5196 33.7071 47.7071C33.5196 47.8946 33.2652 48 33 48Z" fill="#010E28"/>
<path d="M20.9998 47.9999C20.7346 47.9999 20.4802 47.8945 20.2927 47.707C20.1051 47.5195 19.9998 47.2651 19.9998 46.9999V38.9999C19.9998 38.7347 20.1051 38.4803 20.2927 38.2928C20.4802 38.1053 20.7346 37.9999 20.9998 37.9999C21.265 37.9999 21.5194 38.1053 21.7069 38.2928C21.8944 38.4803 21.9998 38.7347 21.9998 38.9999V46.9999C21.9998 47.2651 21.8944 47.5195 21.7069 47.707C21.5194 47.8945 21.265 47.9999 20.9998 47.9999ZM26.9998 47.9999C26.7346 47.9999 26.4802 47.8945 26.2927 47.707C26.1051 47.5195 25.9998 47.2651 25.9998 46.9999V38.9999C25.9998 38.7347 26.1051 38.4803 26.2927 38.2928C26.4802 38.1053 26.7346 37.9999 26.9998 37.9999C27.265 37.9999 27.5194 38.1053 27.7069 38.2928C27.8944 38.4803 27.9998 38.7347 27.9998 38.9999V46.9999C27.9998 47.2651 27.8944 47.5195 27.7069 47.707C27.5194 47.8945 27.265 47.9999 26.9998 47.9999ZM14.9998 29.9999C14.8022 29.9999 14.609 29.9413 14.4446 29.8315C14.2803 29.7217 14.1521 29.5657 14.0764 29.3832C14.0006 29.2007 13.9807 28.9998 14.019 28.8059C14.0573 28.612 14.1523 28.4339 14.2918 28.2939L21.2918 21.2939C21.4396 21.1446 21.6309 21.0461 21.8382 21.0123C22.0455 20.9785 22.2582 21.0113 22.4458 21.1059L25.8018 22.7839L32.2918 16.2939C32.4804 16.1117 32.733 16.0109 32.9952 16.0132C33.2574 16.0155 33.5082 16.1207 33.6936 16.3061C33.879 16.4915 33.9842 16.7423 33.9865 17.0045C33.9887 17.2667 33.888 17.5193 33.7058 17.7079L26.7058 24.7079C26.557 24.8556 26.3658 24.9531 26.1589 24.9868C25.952 25.0205 25.7398 24.9887 25.5518 24.8959L22.1958 23.2179L15.7058 29.7079C15.6131 29.8006 15.5031 29.8742 15.3819 29.9243C15.2607 29.9744 15.1309 30.0001 14.9998 29.9999Z" fill="#010E28"/>
<path d="M33 24C32.7348 24 32.4804 23.8946 32.2929 23.7071C32.1054 23.5196 32 23.2652 32 23V18H27C26.7348 18 26.4804 17.8946 26.2929 17.7071C26.1054 17.5196 26 17.2652 26 17C26 16.7348 26.1054 16.4804 26.2929 16.2929C26.4804 16.1054 26.7348 16 27 16H33C33.2652 16 33.5196 16.1054 33.7071 16.2929C33.8946 16.4804 34 16.7348 34 17V23C34 23.2652 33.8946 23.5196 33.7071 23.7071C33.5196 23.8946 33.2652 24 33 24Z" fill="#010E28"/>
</g>
<defs>
<clipPath id="clip0_509_2357">
<rect width="48" height="48" fill="white"/>
</clipPath>
</defs>
</svg>
