<svg width="48" height="48" viewBox="0 0 48 48" fill="none" xmlns="http://www.w3.org/2000/svg">
<g clip-path="url(#clip0_509_2350)">
<path d="M45 40H3C1.346 40 0 38.654 0 37V11C0 9.346 1.346 8 3 8H11C11.2652 8 11.5196 8.10536 11.7071 8.29289C11.8946 8.48043 12 8.73478 12 9C12 9.26522 11.8946 9.51957 11.7071 9.70711C11.5196 9.89464 11.2652 10 11 10H3C2.45 10 2 10.45 2 11V37C2 37.55 2.45 38 3 38H45C45.55 38 46 37.55 46 37V11C46 10.45 45.55 10 45 10H39C38.7348 10 38.4804 9.89464 38.2929 9.70711C38.1054 9.51957 38 9.26522 38 9C38 8.73478 38.1054 8.48043 38.2929 8.29289C38.4804 8.10536 38.7348 8 39 8H45C46.654 8 48 9.346 48 11V37C48 38.654 46.654 40 45 40ZM33 48H15C14.7348 48 14.4804 47.8946 14.2929 47.7071C14.1054 47.5196 14 47.2652 14 47C14 46.7348 14.1054 46.4804 14.2929 46.2929C14.4804 46.1054 14.7348 46 15 46H33C33.2652 46 33.5196 46.1054 33.7071 46.2929C33.8946 46.4804 34 46.7348 34 47C34 47.2652 33.8946 47.5196 33.7071 47.7071C33.5196 47.8946 33.2652 48 33 48Z" fill="#010E28"/>
<path d="M21 48C20.7348 48 20.4804 47.8946 20.2929 47.7071C20.1054 47.5196 20 47.2652 20 47V39C20 38.7348 20.1054 38.4804 20.2929 38.2929C20.4804 38.1054 20.7348 38 21 38C21.2652 38 21.5196 38.1054 21.7071 38.2929C21.8946 38.4804 22 38.7348 22 39V47C22 47.2652 21.8946 47.5196 21.7071 47.7071C21.5196 47.8946 21.2652 48 21 48ZM27 48C26.7348 48 26.4804 47.8946 26.2929 47.7071C26.1054 47.5196 26 47.2652 26 47V39C26 38.7348 26.1054 38.4804 26.2929 38.2929C26.4804 38.1054 26.7348 38 27 38C27.2652 38 27.5196 38.1054 27.7071 38.2929C27.8946 38.4804 28 38.7348 28 39V47C28 47.2652 27.8946 47.5196 27.7071 47.7071C27.5196 47.8946 27.2652 48 27 48ZM15 12C14.7348 12 14.4804 11.8946 14.2929 11.7071C14.1054 11.5196 14 11.2652 14 11V1C14 0.734784 14.1054 0.48043 14.2929 0.292893C14.4804 0.105357 14.7348 0 15 0C15.2652 0 15.5196 0.105357 15.7071 0.292893C15.8946 0.48043 16 0.734784 16 1V11C16 11.2652 15.8946 11.5196 15.7071 11.7071C15.5196 11.8946 15.2652 12 15 12ZM33 12C32.7348 12 32.4804 11.8946 32.2929 11.7071C32.1054 11.5196 32 11.2652 32 11V1C32 0.734784 32.1054 0.48043 32.2929 0.292893C32.4804 0.105357 32.7348 0 33 0C33.2652 0 33.5196 0.105357 33.7071 0.292893C33.8946 0.48043 34 0.734784 34 1V11C34 11.2652 33.8946 11.5196 33.7071 11.7071C33.5196 11.8946 33.2652 12 33 12ZM25 12H23C21.346 12 20 10.654 20 9V3C20 1.346 21.346 0 23 0H25C26.654 0 28 1.346 28 3V9C28 10.654 26.654 12 25 12ZM23 2C22.45 2 22 2.45 22 3V9C22 9.55 22.45 10 23 10H25C25.55 10 26 9.55 26 9V3C26 2.45 25.55 2 25 2H23ZM33 28C32.7348 28 32.4804 27.8946 32.2929 27.7071C32.1054 27.5196 32 27.2652 32 27V17C32 16.7348 32.1054 16.4804 32.2929 16.2929C32.4804 16.1054 32.7348 16 33 16C33.2652 16 33.5196 16.1054 33.7071 16.2929C33.8946 16.4804 34 16.7348 34 17V27C34 27.2652 33.8946 27.5196 33.7071 27.7071C33.5196 27.8946 33.2652 28 33 28ZM19 28H17C15.346 28 14 26.654 14 25V19C14 17.346 15.346 16 17 16H19C20.654 16 22 17.346 22 19V25C22 26.654 20.654 28 19 28ZM17 18C16.45 18 16 18.45 16 19V25C16 25.55 16.45 26 17 26H19C19.55 26 20 25.55 20 25V19C20 18.45 19.55 18 19 18H17ZM27 28C26.7348 28 26.4804 27.8946 26.2929 27.7071C26.1054 27.5196 26 27.2652 26 27V17C26 16.7348 26.1054 16.4804 26.2929 16.2929C26.4804 16.1054 26.7348 16 27 16C27.2652 16 27.5196 16.1054 27.7071 16.2929C27.8946 16.4804 28 16.7348 28 17V27C28 27.2652 27.8946 27.5196 27.7071 27.7071C27.5196 27.8946 27.2652 28 27 28Z" fill="#010E28"/>
</g>
<defs>
<clipPath id="clip0_509_2350">
<rect width="48" height="48" fill="white"/>
</clipPath>
</defs>
</svg>
