<svg width="48" height="48" viewBox="0 0 48 48" fill="none" xmlns="http://www.w3.org/2000/svg">
<g clip-path="url(#clip0_509_1815)">
<path d="M45 48H23C21.346 48 20 46.654 20 45C20 44.414 20.162 43.862 20.47 43.402L31.446 25.438C31.962 24.558 32.946 24 34 24C35.054 24 36.038 24.558 36.562 25.454L47.552 43.438C47.838 43.862 48 44.414 48 45C48 46.654 46.654 48 45 48ZM34 26C33.8321 25.9982 33.6667 26.0402 33.5201 26.1219C33.3735 26.2037 33.2507 26.3223 33.164 26.466L22.154 44.482C22.0501 44.6345 21.9963 44.8155 22 45C22 45.2652 22.1054 45.5196 22.2929 45.7071C22.4804 45.8946 22.7348 46 23 46H45C45.2652 46 45.5196 45.8946 45.7071 45.7071C45.8946 45.5196 46 45.2652 46 45C46.0053 44.83 45.96 44.6623 45.87 44.518L34.846 26.482C34.7598 26.3344 34.6362 26.2121 34.4877 26.1274C34.3392 26.0428 34.1709 25.9989 34 26Z" fill="#010E28"/>
<path d="M34 40C33.7348 40 33.4804 39.8946 33.2929 39.7071C33.1054 39.5196 33 39.2652 33 39V31C33 30.7348 33.1054 30.4804 33.2929 30.2929C33.4804 30.1054 33.7348 30 34 30C34.2652 30 34.5196 30.1054 34.7071 30.2929C34.8946 30.4804 35 30.7348 35 31V39C35 39.2652 34.8946 39.5196 34.7071 39.7071C34.5196 39.8946 34.2652 40 34 40Z" fill="#010E28"/>
<path d="M34 44C34.5523 44 35 43.5523 35 43C35 42.4477 34.5523 42 34 42C33.4477 42 33 42.4477 33 43C33 43.5523 33.4477 44 34 44Z" fill="#010E28"/>
<path d="M17 42H5C3.67441 41.9984 2.40356 41.4711 1.46622 40.5338C0.528882 39.5964 0.00158786 38.3256 0 37L0 5C0 2.244 2.242 0 5 0H27C29.758 0 32 2.244 32 5V19C32 19.2652 31.8946 19.5196 31.7071 19.7071C31.5196 19.8946 31.2652 20 31 20C30.7348 20 30.4804 19.8946 30.2929 19.7071C30.1054 19.5196 30 19.2652 30 19V5C30 3.346 28.654 2 27 2H5C3.346 2 2 3.346 2 5V37C2 38.654 3.346 40 5 40H17C17.2652 40 17.5196 40.1054 17.7071 40.2929C17.8946 40.4804 18 40.7348 18 41C18 41.2652 17.8946 41.5196 17.7071 41.7071C17.5196 41.8946 17.2652 42 17 42Z" fill="#010E28"/>
<path d="M6.99979 26C6.80216 26 6.60897 25.9414 6.44462 25.8316C6.28027 25.7219 6.15213 25.5659 6.07638 25.3833C6.00063 25.2008 5.98066 24.9999 6.019 24.806C6.05734 24.6122 6.15226 24.434 6.29179 24.294L11.2918 19.294C11.4401 19.1456 11.6313 19.0475 11.8384 19.0138C12.0456 18.98 12.258 19.0123 12.4458 19.106L15.8018 20.784L22.2918 14.294C22.4804 14.1119 22.733 14.0111 22.9952 14.0133C23.2574 14.0156 23.5082 14.1208 23.6936 14.3062C23.879 14.4916 23.9842 14.7424 23.9865 15.0046C23.9887 15.2668 23.8879 15.5194 23.7058 15.708L16.7058 22.708C16.5575 22.8565 16.3662 22.9545 16.1591 22.9882C15.952 23.022 15.7395 22.9897 15.5518 22.896L12.1958 21.218L7.70579 25.708C7.61312 25.8008 7.50305 25.8743 7.3819 25.9244C7.26075 25.9745 7.13089 26.0002 6.99979 26Z" fill="#010E28"/>
<path d="M23 22C22.7348 22 22.4804 21.8946 22.2929 21.7071C22.1054 21.5196 22 21.2652 22 21V16H17C16.7348 16 16.4804 15.8946 16.2929 15.7071C16.1054 15.5196 16 15.2652 16 15C16 14.7348 16.1054 14.4804 16.2929 14.2929C16.4804 14.1054 16.7348 14 17 14H23C23.2652 14 23.5196 14.1054 23.7071 14.2929C23.8946 14.4804 24 14.7348 24 15V21C24 21.2652 23.8946 21.5196 23.7071 21.7071C23.5196 21.8946 23.2652 22 23 22Z" fill="#010E28"/>
</g>
<defs>
<clipPath id="clip0_509_1815">
<rect width="48" height="48" fill="white"/>
</clipPath>
</defs>
</svg>
