<svg width="48" height="48" viewBox="0 0 48 48" fill="none" xmlns="http://www.w3.org/2000/svg">
<g clip-path="url(#clip0_509_2384)">
<path d="M45 36H3C1.346 36 0 34.654 0 33V7C0 5.346 1.346 4 3 4H45C46.654 4 48 5.346 48 7V33C48 34.654 46.654 36 45 36ZM3 6C2.45 6 2 6.45 2 7V33C2 33.55 2.45 34 3 34H45C45.55 34 46 33.55 46 33V7C46 6.45 45.55 6 45 6H3ZM33 44H15C14.7348 44 14.4804 43.8946 14.2929 43.7071C14.1054 43.5196 14 43.2652 14 43C14 42.7348 14.1054 42.4804 14.2929 42.2929C14.4804 42.1054 14.7348 42 15 42H33C33.2652 42 33.5196 42.1054 33.7071 42.2929C33.8946 42.4804 34 42.7348 34 43C34 43.2652 33.8946 43.5196 33.7071 43.7071C33.5196 43.8946 33.2652 44 33 44Z" fill="#010E28"/>
<path d="M21 44C20.7348 44 20.4804 43.8946 20.2929 43.7071C20.1054 43.5196 20 43.2652 20 43V35C20 34.7348 20.1054 34.4804 20.2929 34.2929C20.4804 34.1054 20.7348 34 21 34C21.2652 34 21.5196 34.1054 21.7071 34.2929C21.8946 34.4804 22 34.7348 22 35V43C22 43.2652 21.8946 43.5196 21.7071 43.7071C21.5196 43.8946 21.2652 44 21 44ZM27 44C26.7348 44 26.4804 43.8946 26.2929 43.7071C26.1054 43.5196 26 43.2652 26 43V35C26 34.7348 26.1054 34.4804 26.2929 34.2929C26.4804 34.1054 26.7348 34 27 34C27.2652 34 27.5196 34.1054 27.7071 34.2929C27.8946 34.4804 28 34.7348 28 35V43C28 43.2652 27.8946 43.5196 27.7071 43.7071C27.5196 43.8946 27.2652 44 27 44ZM32 26C28.692 26 26 23.308 26 20C26 16.692 28.692 14 32 14C35.308 14 38 16.692 38 20C38 23.308 35.308 26 32 26ZM32 16C29.794 16 28 17.794 28 20C28 22.206 29.794 24 32 24C34.206 24 36 22.206 36 20C36 17.794 34.206 16 32 16Z" fill="#010E28"/>
<path d="M13 24C12.7348 24 12.4804 23.8946 12.2929 23.7071C12.1054 23.5196 12 23.2652 12 23V21C12 20.4696 12.2107 19.9609 12.5858 19.5858C12.9609 19.2107 13.4696 19 14 19H27C27.2652 19 27.5196 19.1054 27.7071 19.2929C27.8946 19.4804 28 19.7348 28 20C28 20.2652 27.8946 20.5196 27.7071 20.7071C27.5196 20.8946 27.2652 21 27 21H14V23C14 23.2652 13.8946 23.5196 13.7071 23.7071C13.5196 23.8946 13.2652 24 13 24Z" fill="#010E28"/>
<path d="M17 24C16.7348 24 16.4804 23.8946 16.2929 23.7071C16.1054 23.5196 16 23.2652 16 23V20C16 19.7348 16.1054 19.4804 16.2929 19.2929C16.4804 19.1054 16.7348 19 17 19C17.2652 19 17.5196 19.1054 17.7071 19.2929C17.8946 19.4804 18 19.7348 18 20V23C18 23.2652 17.8946 23.5196 17.7071 23.7071C17.5196 23.8946 17.2652 24 17 24Z" fill="#010E28"/>
</g>
<defs>
<clipPath id="clip0_509_2384">
<rect width="48" height="48" fill="white"/>
</clipPath>
</defs>
</svg>
