<svg width="48" height="48" viewBox="0 0 48 48" fill="none" xmlns="http://www.w3.org/2000/svg">
<g clip-path="url(#clip0_509_2672)">
<path d="M36 40C33.242 40 31 37.756 31 35C31 32.244 33.242 30 36 30C38.758 30 41 32.244 41 35C41 37.756 38.758 40 36 40ZM36 32C34.346 32 33 33.346 33 35C33 36.654 34.346 38 36 38C37.654 38 39 36.654 39 35C39 33.346 37.654 32 36 32Z" fill="#010E28"/>
<path d="M37.5479 48H34.4499C33.9563 47.9988 33.481 47.8127 33.1178 47.4784C32.7547 47.1441 32.5299 46.6858 32.4879 46.194L32.2419 43.648C31.6552 43.3786 31.0993 43.0467 30.5839 42.658L28.3419 43.7C27.8932 43.9098 27.3814 43.9407 26.9106 43.7865C26.4399 43.6323 26.0456 43.3046 25.8079 42.87L24.2579 40.108C24.0179 39.6808 23.9414 39.1809 24.0426 38.7015C24.1438 38.2221 24.4157 37.7958 24.8079 37.502L26.8079 36.022C26.7699 35.71 26.7419 35.362 26.7419 34.998C26.7419 34.634 26.7719 34.286 26.8079 33.974L24.8079 32.494C24.4157 32.2002 24.1439 31.7737 24.043 31.2942C23.9422 30.8147 24.0193 30.3149 24.2599 29.888L25.8059 27.126C26.0436 26.6914 26.4379 26.3637 26.9086 26.2095C27.3794 26.0553 27.8912 26.0862 28.3399 26.296L30.5839 27.338C31.1059 26.946 31.6599 26.614 32.2419 26.348L32.4879 23.8C32.5879 22.776 33.4319 22 34.4519 22H37.5499C38.5699 22 39.4139 22.776 39.5119 23.806L39.7579 26.352C40.3399 26.62 40.8939 26.95 41.4159 27.342L43.6579 26.3C44.1066 26.0897 44.6185 26.0586 45.0894 26.2128C45.5603 26.367 45.9546 26.6951 46.1919 27.13L47.7419 29.892C47.9819 30.3192 48.0584 30.8191 47.9572 31.2985C47.856 31.7779 47.584 32.2042 47.1919 32.498L45.1919 33.978C45.2299 34.29 45.2579 34.638 45.2579 35.002C45.2579 35.366 45.2279 35.714 45.1919 36.026L47.1919 37.506C48.0019 38.108 48.2379 39.226 47.7399 40.112L46.1939 42.874C45.9559 43.3082 45.5615 43.6357 45.0909 43.7898C44.6203 43.9439 44.1087 43.9133 43.6599 43.704L41.4159 42.662C40.9005 43.0507 40.3446 43.3826 39.7579 43.652L39.5119 46.2C39.468 46.6909 39.2422 47.1477 38.8788 47.4807C38.5155 47.8138 38.0408 47.999 37.5479 48ZM30.7259 40.49C30.9661 40.4901 31.1983 40.5768 31.3799 40.734C32.0319 41.298 32.7559 41.732 33.5299 42.022C33.8879 42.156 34.1379 42.482 34.1739 42.862L34.4779 46.004L37.5479 46L37.8239 42.86C37.8424 42.6739 37.9124 42.4967 38.0262 42.3482C38.14 42.1998 38.293 42.0861 38.4679 42.02C39.2554 41.7218 39.9834 41.2856 40.6179 40.732C40.7636 40.6057 40.9427 40.5244 41.1337 40.4978C41.3246 40.4711 41.5192 40.5004 41.6939 40.582L44.4999 41.886L45.9939 39.13L43.5159 37.274C43.3674 37.1639 43.2523 37.0147 43.1835 36.8431C43.1146 36.6716 43.0947 36.4842 43.1259 36.302C43.1999 35.878 43.2559 35.448 43.2559 35.002C43.2559 34.556 43.1999 34.126 43.1259 33.702C43.0952 33.5198 43.1153 33.3326 43.1841 33.1611C43.2529 32.9896 43.3677 32.8404 43.5159 32.73L45.9999 30.89L44.4479 28.108L41.6959 29.418C41.521 29.4991 41.3264 29.5279 41.1354 29.5009C40.9445 29.4739 40.7655 29.3924 40.6199 29.266C39.9852 28.7126 39.2572 28.2765 38.4699 27.978C38.2946 27.9125 38.1412 27.7989 38.0274 27.6504C37.9135 27.5019 37.8437 27.3243 37.8259 27.138L37.5219 23.996L34.4519 24L34.1759 27.14C34.1574 27.3261 34.0874 27.5033 33.9736 27.6518C33.8598 27.8002 33.7068 27.9139 33.5319 27.98C32.7444 28.2782 32.0164 28.7144 31.3819 29.268C31.2357 29.3934 31.0566 29.4741 30.8659 29.5007C30.6752 29.5273 30.4808 29.4986 30.3059 29.418L27.4999 28.114L26.0059 30.87L28.4839 32.726C28.6324 32.8361 28.7475 32.9853 28.8163 33.1569C28.8852 33.3284 28.9051 33.5158 28.8739 33.698C28.7999 34.122 28.7439 34.552 28.7439 34.998C28.7439 35.444 28.7999 35.874 28.8739 36.298C28.9046 36.4802 28.8845 36.6674 28.8157 36.8389C28.7469 37.0104 28.6321 37.1596 28.4839 37.27L25.9999 39.11L27.5519 41.892L30.3039 40.582C30.4363 40.5214 30.5803 40.4901 30.7259 40.49Z" fill="#010E28"/>
<path d="M19 42H5C3.67441 41.9984 2.40356 41.4711 1.46622 40.5338C0.528882 39.5964 0.00158786 38.3256 0 37L0 5C0 2.244 2.242 0 5 0H27C29.758 0 32 2.244 32 5V17C32 17.2652 31.8946 17.5196 31.7071 17.7071C31.5196 17.8946 31.2652 18 31 18C30.7348 18 30.4804 17.8946 30.2929 17.7071C30.1054 17.5196 30 17.2652 30 17V5C30 3.346 28.654 2 27 2H5C3.346 2 2 3.346 2 5V37C2 38.654 3.346 40 5 40H19C19.2652 40 19.5196 40.1054 19.7071 40.2929C19.8946 40.4804 20 40.7348 20 41C20 41.2652 19.8946 41.5196 19.7071 41.7071C19.5196 41.8946 19.2652 42 19 42Z" fill="#010E28"/>
<path d="M6.99979 26C6.80216 26 6.60897 25.9414 6.44462 25.8316C6.28027 25.7219 6.15213 25.5659 6.07638 25.3833C6.00063 25.2008 5.98066 24.9999 6.019 24.806C6.05734 24.6122 6.15226 24.434 6.29179 24.294L11.2918 19.294C11.4401 19.1456 11.6313 19.0475 11.8384 19.0138C12.0456 18.98 12.258 19.0123 12.4458 19.106L15.8018 20.784L22.2918 14.294C22.4804 14.1119 22.733 14.0111 22.9952 14.0133C23.2574 14.0156 23.5082 14.1208 23.6936 14.3062C23.879 14.4916 23.9842 14.7424 23.9865 15.0046C23.9887 15.2668 23.8879 15.5194 23.7058 15.708L16.7058 22.708C16.5576 22.8567 16.3664 22.955 16.1592 22.9887C15.952 23.0225 15.7395 22.99 15.5518 22.896L12.1958 21.218L7.70579 25.708C7.61312 25.8008 7.50305 25.8743 7.3819 25.9244C7.26075 25.9745 7.13089 26.0002 6.99979 26Z" fill="#010E28"/>
<path d="M23 22C22.7348 22 22.4804 21.8946 22.2929 21.7071C22.1054 21.5196 22 21.2652 22 21V16H17C16.7348 16 16.4804 15.8946 16.2929 15.7071C16.1054 15.5196 16 15.2652 16 15C16 14.7348 16.1054 14.4804 16.2929 14.2929C16.4804 14.1054 16.7348 14 17 14H23C23.2652 14 23.5196 14.1054 23.7071 14.2929C23.8946 14.4804 24 14.7348 24 15V21C24 21.2652 23.8946 21.5196 23.7071 21.7071C23.5196 21.8946 23.2652 22 23 22Z" fill="#010E28"/>
</g>
<defs>
<clipPath id="clip0_509_2672">
<rect width="48" height="48" fill="white"/>
</clipPath>
</defs>
</svg>
