<svg width="48" height="48" viewBox="0 0 48 48" fill="none" xmlns="http://www.w3.org/2000/svg">
<path fill-rule="evenodd" clip-rule="evenodd" d="M5.2 23.268C5.16279 22.8531 5.21239 22.435 5.34564 22.0403C5.47889 21.6457 5.69287 21.2831 5.97396 20.9757C6.25504 20.6682 6.59707 20.4227 6.97826 20.2547C7.35945 20.0868 7.77144 20 8.188 20H39.812C40.2287 20 40.6409 20.0868 41.0223 20.2549C41.4036 20.423 41.7457 20.6687 42.0268 20.9763C42.308 21.284 42.5219 21.6468 42.655 22.0417C42.7881 22.4366 42.8375 22.8549 42.8 23.27L41.196 41.09C41.1735 41.3386 41.0589 41.5699 40.8746 41.7383C40.6903 41.9067 40.4496 42 40.2 42H7.8C7.55035 42 7.30973 41.9067 7.12543 41.7383C6.94112 41.5699 6.82647 41.3386 6.804 41.09L5.2 23.27V23.268ZM8.188 22C8.04909 22 7.91169 22.0289 7.78458 22.085C7.65747 22.141 7.54343 22.2229 7.44972 22.3254C7.35601 22.428 7.2847 22.5489 7.24033 22.6806C7.19596 22.8122 7.1795 22.9516 7.192 23.09L8.714 40H39.286L40.806 23.09C40.8185 22.9518 40.8021 22.8125 40.7578 22.681C40.7136 22.5496 40.6424 22.4287 40.549 22.3262C40.4555 22.2237 40.3417 22.1417 40.2148 22.0856C40.0879 22.0294 39.9507 22.0003 39.812 22H8.188ZM5 45C5 44.7348 5.10536 44.4804 5.29289 44.2929C5.48043 44.1054 5.73478 44 6 44H42C42.2652 44 42.5196 44.1054 42.7071 44.2929C42.8946 44.4804 43 44.7348 43 45C43 45.2652 42.8946 45.5196 42.7071 45.7071C42.5196 45.8946 42.2652 46 42 46H6C5.73478 46 5.48043 45.8946 5.29289 45.7071C5.10536 45.5196 5 45.2652 5 45Z" fill="#010E28"/>
<path fill-rule="evenodd" clip-rule="evenodd" d="M24 28C23.2044 28 22.4413 28.3161 21.8787 28.8787C21.3161 29.4413 21 30.2044 21 31C21 31.7956 21.3161 32.5587 21.8787 33.1213C22.4413 33.6839 23.2044 34 24 34C24.7956 34 25.5587 33.6839 26.1213 33.1213C26.6839 32.5587 27 31.7956 27 31C27 30.2044 26.6839 29.4413 26.1213 28.8787C25.5587 28.3161 24.7956 28 24 28ZM19 31C19 29.6739 19.5268 28.4021 20.4645 27.4645C21.4021 26.5268 22.6739 26 24 26C25.3261 26 26.5979 26.5268 27.5355 27.4645C28.4732 28.4021 29 29.6739 29 31C29 32.3261 28.4732 33.5979 27.5355 34.5355C26.5979 35.4732 25.3261 36 24 36C22.6739 36 21.4021 35.4732 20.4645 34.5355C19.5268 33.5979 19 32.3261 19 31ZM24 4C22.9391 4 21.9217 4.42143 21.1716 5.17157C20.4214 5.92172 20 6.93913 20 8C20 9.06087 20.4214 10.0783 21.1716 10.8284C21.9217 11.5786 22.9391 12 24 12C25.0609 12 26.0783 11.5786 26.8284 10.8284C27.5786 10.0783 28 9.06087 28 8C28 6.93913 27.5786 5.92172 26.8284 5.17157C26.0783 4.42143 25.0609 4 24 4ZM18 8C18 6.4087 18.6321 4.88258 19.7574 3.75736C20.8826 2.63214 22.4087 2 24 2C25.5913 2 27.1174 2.63214 28.2426 3.75736C29.3679 4.88258 30 6.4087 30 8C30 9.5913 29.3679 11.1174 28.2426 12.2426C27.1174 13.3679 25.5913 14 24 14C22.4087 14 20.8826 13.3679 19.7574 12.2426C18.6321 11.1174 18 9.5913 18 8ZM13 21C13 19.6739 13.5268 18.4021 14.4645 17.4645C15.4021 16.5268 16.6739 16 18 16H30C31.3261 16 32.5979 16.5268 33.5355 17.4645C34.4732 18.4021 35 19.6739 35 21C35 21.2652 34.8946 21.5196 34.7071 21.7071C34.5196 21.8946 34.2652 22 34 22C33.7348 22 33.4804 21.8946 33.2929 21.7071C33.1054 21.5196 33 21.2652 33 21C33 20.2044 32.6839 19.4413 32.1213 18.8787C31.5587 18.3161 30.7956 18 30 18H18C17.2044 18 16.4413 18.3161 15.8787 18.8787C15.3161 19.4413 15 20.2044 15 21C15 21.2652 14.8946 21.5196 14.7071 21.7071C14.5196 21.8946 14.2652 22 14 22C13.7348 22 13.4804 21.8946 13.2929 21.7071C13.1054 21.5196 13 21.2652 13 21Z" fill="#010E28"/>
</svg>
