<svg width="16" height="15" viewBox="0 0 16 15" fill="none" xmlns="http://www.w3.org/2000/svg">
<path d="M3.1625 12.2187C3.95 11.6687 4.73125 11.2469 5.50625 10.9531C6.28125 10.6594 7.1125 10.5125 8 10.5125C8.8875 10.5125 9.72187 10.6594 10.5031 10.9531C11.2844 11.2469 12.0687 11.6687 12.8562 12.2187C13.4062 11.5437 13.7969 10.8625 14.0281 10.175C14.2594 9.4875 14.375 8.7625 14.375 8C14.375 6.1875 13.7656 4.67187 12.5469 3.45312C11.3281 2.23437 9.8125 1.625 8 1.625C6.1875 1.625 4.67187 2.23437 3.45312 3.45312C2.23437 4.67187 1.625 6.1875 1.625 8C1.625 8.7625 1.74375 9.4875 1.98125 10.175C2.21875 10.8625 2.6125 11.5437 3.1625 12.2187ZM7.99651 8.5625C7.27384 8.5625 6.66562 8.31446 6.17187 7.81839C5.67812 7.32231 5.43125 6.71294 5.43125 5.99026C5.43125 5.26759 5.67929 4.65937 6.17536 4.16562C6.67144 3.67187 7.28081 3.425 8.00349 3.425C8.72616 3.425 9.33437 3.67304 9.82812 4.16911C10.3219 4.66519 10.5687 5.27456 10.5687 5.99724C10.5687 6.71991 10.3207 7.32812 9.82464 7.82187C9.32856 8.31562 8.71919 8.5625 7.99651 8.5625ZM8.00877 15.5C6.97792 15.5 6.00625 15.3031 5.09375 14.9094C4.18125 14.5156 3.38437 13.9781 2.70312 13.2969C2.02187 12.6156 1.48437 11.8202 1.09062 10.9106C0.696875 10.0011 0.5 9.02919 0.5 7.99501C0.5 6.96084 0.696875 5.99062 1.09062 5.08437C1.48437 4.17812 2.02187 3.38437 2.70312 2.70312C3.38437 2.02187 4.17979 1.48437 5.08936 1.09062C5.99894 0.696875 6.97081 0.5 8.00499 0.5C9.03916 0.5 10.0094 0.696875 10.9156 1.09062C11.8219 1.48437 12.6156 2.02187 13.2969 2.70312C13.9781 3.38437 14.5156 4.17832 14.9094 5.08497C15.3031 5.99162 15.5 6.96037 15.5 7.99122C15.5 9.02207 15.3031 9.99375 14.9094 10.9062C14.5156 11.8187 13.9781 12.6156 13.2969 13.2969C12.6156 13.9781 11.8217 14.5156 10.915 14.9094C10.0084 15.3031 9.03962 15.5 8.00877 15.5ZM8 14.375C8.6875 14.375 9.35937 14.275 10.0156 14.075C10.6719 13.875 11.3187 13.525 11.9562 13.025C11.3187 12.575 10.6687 12.2312 10.0062 11.9937C9.34375 11.7562 8.675 11.6375 8 11.6375C7.325 11.6375 6.65625 11.7562 5.99375 11.9937C5.33125 12.2312 4.68125 12.575 4.04375 13.025C4.68125 13.525 5.32812 13.875 5.98437 14.075C6.64062 14.275 7.3125 14.375 8 14.375ZM8 7.4375C8.425 7.4375 8.77187 7.30312 9.04062 7.03437C9.30937 6.76562 9.44375 6.41875 9.44375 5.99375C9.44375 5.56875 9.30937 5.22187 9.04062 4.95312C8.77187 4.68437 8.425 4.55 8 4.55C7.575 4.55 7.22812 4.68437 6.95937 4.95312C6.69062 5.22187 6.55625 5.56875 6.55625 5.99375C6.55625 6.41875 6.69062 6.76562 6.95937 7.03437C7.22812 7.30312 7.575 7.4375 8 7.4375Z" fill="#565E6E"/>
</svg>
